<?xml version="1.0" encoding="UTF-8" standalone="no"?>
<svg xmlns:mapsvg="http://mapsvg.com" xmlns:dc="http://purl.org/dc/elements/1.1/" xmlns:cc="http://creativecommons.org/ns#" xmlns:rdf="http://www.w3.org/1999/02/22-rdf-syntax-ns#" xmlns:svg="http://www.w3.org/2000/svg" xmlns="http://www.w3.org/2000/svg" mapsvg:geoViewBox="-25.360994 37.343521 59.838547 -34.833225" id="svg2" version="1.1" preserveAspectRatio="xMidYMid meet" viewBox="0 0 239.05701 217.31789" style="">
  <metadata id="metadata263">
    <rdf:RDF>
      <cc:Work rdf:about="">
        <dc:format>image/svg+xml</dc:format>
        <dc:type rdf:resource="http://purl.org/dc/dcmitype/StillImage"></dc:type>
        <dc:title></dc:title>
      </cc:Work>
    </rdf:RDF>
  </metadata>
  <defs id="defs261">
    <path id="test" d="m, 1 23"></path>
  </defs>
  
  
  
  <path d="m 213.15,37.99143 -0.091,0.23823 -0.087,-0.0834 -0.22,-0.41213 0.066,-0.2895 -0.103,-0.41414 0.049,-0.11861 0.264,-0.0553 0.061,0.0181 -0.079,0.13268 0.146,0.2312 0.022,0.38097 z" title="Bahrain" id="BH" class=" " style="fill: rgb(0, 0, 0); stroke-width: 1.2px;"></path>
  <path d="m 156.869,119.88248 -0.056,0.0734 -0.257,0.52471 -0.05,0.0794 0.028,0.0482 0.11,0.0995 -0.065,0.16585 -0.025,0.0443 -0.049,0.15379 0.027,0.14173 0.062,0.0522 0.167,0.0683 0.25,0.0492 0.295,0.11861 0.199,0.0211 0.047,0.0855 -0.009,0.15179 0.048,0.13168 0.001,0.23621 -0.059,0.20808 -0.304,0.0975 -0.157,0.10655 -0.042,0.0542 0.038,0.0623 0.02,0.0834 -0.286,0.20807 -0.294,0.2704 -0.07,0.18194 -0.059,0.21612 -0.086,0.13771 -0.224,0.19903 -0.229,0.40007 -0.112,0.25933 -0.561,0.62323 -0.499,0.31161 -0.145,0.10554 -0.883,-0.0181 -0.067,-0.42016 -0.134,-0.57397 -0.304,-0.51767 -0.032,-0.21712 0.014,-0.41816 0.001,-0.58703 -0.02,-0.31564 0.007,-0.23019 0.038,-0.40006 -0.005,-0.23924 -0.199,-0.27543 -0.248,-0.29351 -0.136,-0.14374 -0.007,-0.1156 0.001,-0.10756 0.04,-0.1558 0.097,-0.1739 0.109,-0.0191 0.268,0.0694 0.279,0.14775 0.148,0.33272 0.114,0.0472 0.206,-0.001 0.527,-0.0432 0.131,0.005 0.239,-0.0794 0.238,-0.13973 0.069,-0.14475 0.055,-0.32668 0.05,-0.58603 0.122,-0.006 0.332,0.20807 0.072,0.0141 0.069,-0.007 0.116,-0.10353 0.141,-0.0845 0.105,0.002 0.386,-0.0975 0.207,0.17691 0.13,0.0553 z" title="Burundi" id="BI" class=" " style="fill: rgb(0, 0, 0); stroke-width: 1.2px;"></path>
  
  
  <path d="m 148.027,98.81867 0.102,0.19701 0.145,0.20205 0.486,0.34176 0.154,0.18999 0.119,0.21108 0.075,0.16486 0.15,0.13168 0.21,0.0844 0.18,0.10052 0.11,0.14777 0.165,0.15379 0.318,0.20908 0.155,0.005 0.179,0.0292 0.158,0.0553 0.169,-0.0161 0.273,-0.13671 0.322,-0.22918 0.246,-0.14173 0.595,0.0502 0.332,0.1156 0.264,0.16183 0.206,-0.0101 0.449,-0.29955 0.238,-0.31864 0.231,-0.0683 0.35,0.13872 0.289,0.29754 0.254,0.43223 0.179,0.16485 0.245,0.25532 0.487,0.54984 0.634,0.27543 0.246,0.13569 0.08,0.13571 0.047,0.18093 0.016,0.19601 0.077,0.0814 0.171,-0.0282 0.146,-0.0282 0.161,0.0563 0.112,0.14273 0.056,0.11158 0.061,0.11961 0.159,0.0764 0.031,0.1538 -0.109,0.18696 -0.112,0.16787 -0.136,0.33373 -0.071,0.34176 0.092,0.11359 0.097,0.0945 0.052,0.0955 0.031,0.11158 -0.012,0.13068 -0.216,0.47445 -0.111,0.41414 -0.004,0.21008 0.285,0.1548 0.37,-0.008 0.117,0.0945 0.117,0.15078 0.103,0.0774 0.156,-0.002 0.108,0.0522 0.043,0.10655 0.126,0.11459 0.106,0.12665 -0.051,0.16184 -0.009,0.12364 -0.264,0.34378 -0.606,0.67046 -1.304,1.24343 -0.001,10e-4 -0.44,0.14977 -0.227,0.23119 -0.161,0.36288 -0.38,0.30759 -0.293,0.12465 -0.031,0.0734 -0.023,0.33373 0.03,0.48953 -0.137,0.22416 -0.199,0.43625 -0.103,0.2724 -0.08,0.0532 -0.089,0.13671 -0.056,0.44429 -0.038,0.14978 -0.143,0.91974 0.041,0.26236 -0.111,0.43726 -0.005,0.25733 -0.046,0.29151 -0.079,0.2523 0.005,0.40409 0.045,0.6594 -0.008,0.0875 -0.11,0.0613 -0.196,0.16385 -0.185,0.10957 -0.141,0.0282 -0.235,0.2915 -0.2,0.27644 -0.15,0.26939 -0.039,0.12364 0.031,0.3488 0.021,0.41313 -0.046,0.17792 -0.07,0.10555 -0.328,0.22416 -0.216,0.16082 -0.102,0.0844 -0.053,0.12967 0.095,0.30558 0.007,0.22315 0.078,0.13168 0.26,0.10655 -0.001,0.10756 0.007,0.1156 0.136,0.14374 0.248,0.29351 0.199,0.27543 0.005,0.23924 -0.038,0.40006 -0.007,0.23019 0.02,0.31563 -0.001,0.58704 -0.014,0.41816 0.032,0.21712 0.304,0.51767 0.134,0.57397 0.067,0.42016 0.003,0.1337 -0.103,0.4835 -0.117,0.46942 -0.007,0.17792 0.055,0.23722 0.217,0.54281 0.158,0.39504 0.076,0.23823 0.109,0.27744 0.145,0.42519 0.036,0.20205 -0.03,0.15077 -0.296,0.53376 -0.03,0.16787 0.073,0.41414 0.097,0.40006 0.14,0.22718 0.334,0.62724 0.249,0.2121 0.459,0.31361 0.405,0.31563 0.156,0.16385 0.143,0.18295 0.282,0.46841 0.172,0.38097 0.091,0.34478 0.221,0.47145 0.206,0.43725 0.266,0.53476 0.188,0.37795 0.085,0.25231 -0.486,0.0754 -0.703,0.10755 -0.775,0.11962 -0.8,0.12264 -0.793,0.12263 -0.752,0.1156 -0.683,0.10453 -0.208,0.0583 0.102,0.29753 -0.047,0.31262 -0.135,0.24225 -0.214,0.29753 -0.097,0.11862 -0.218,0.2322 -0.182,0.16385 -0.371,0.27542 -0.234,0.15782 -0.002,0.14273 0.394,0.66745 0.179,0.47947 0.073,0.43324 -0.004,0.24929 -0.015,0.51265 -0.018,0.61015 -0.027,0.24024 0.107,0.43525 -0.019,0.33976 -0.265,0.37996 -0.074,0.37293 -0.134,0.5036 -0.185,0.69961 -0.132,0.36791 0.073,0.23923 0.066,0.16083 0.07,0.21611 0.142,0.32569 0.166,0.19199 0.093,0.0824 0.546,0.41112 0.227,0.19802 0.346,0.39404 0.256,0.26135 0.356,0.0613 0.427,0.0985 0.236,0.0764 0.162,-0.0371 0.055,-0.0925 -0.008,-0.19702 -0.028,-0.14474 0.045,-0.11158 0.145,-0.0734 0.371,-0.0121 0.161,-0.0985 0.128,-0.0242 0.001,0.43223 0,0.41415 10e-4,0.5036 0,0.57798 0.001,0.47446 0,0.50461 0.001,0.583 -0.003,0.0653 -0.057,0.13168 -0.147,0.0452 -0.199,-0.11358 -0.012,-0.11962 -0.049,-0.2141 -0.092,-0.10957 -0.121,-0.0342 -0.204,0.0552 -0.28,0.15782 -0.359,0.13872 -0.146,0.0794 -0.253,-0.0101 -0.274,-0.0754 -0.201,-0.17792 -0.058,-0.26638 -0.177,-0.2734 -0.24,-0.39605 -0.121,-0.16184 -0.16,-0.18496 -0.162,-0.0211 -0.181,-0.0512 -0.111,-0.27039 -0.104,-0.34177 -0.064,-0.13168 -0.108,-0.16988 -0.155,-0.10354 -0.338,-0.1367 -0.472,-0.18999 -0.594,-0.23923 -0.282,-0.0121 -0.316,-0.0402 -0.198,-0.11358 -0.113,-0.0905 -0.13,-0.33171 -0.178,-0.38801 -0.521,-0.46137 -0.117,-0.51064 -0.105,-0.0734 -0.179,0.0412 -0.138,0.0633 -0.055,0.13771 -0.139,0.46038 -0.077,0.21209 -0.052,0.0593 -0.114,0.0683 -0.186,0.0623 -0.265,0.0312 -0.374,-0.0121 -0.468,-0.0683 -0.252,-0.0512 -0.683,-0.0764 -0.198,-0.0372 -0.279,-0.10052 -0.201,-0.10052 -0.662,-0.21713 -0.301,0.0262 -0.145,-0.15379 -0.131,-0.0754 -0.18,-0.14475 -0.08,-0.19802 -0.107,-0.4252 0.026,-0.22717 0.077,-0.25331 -0.086,-0.0703 -0.12,0 -0.172,0.0875 -0.305,0.0492 -0.559,0.11158 -0.198,0.0623 -0.219,0.0482 -0.168,0.0432 -0.42,0.24426 -0.146,0.0262 -0.249,-0.0875 -0.12,-0.13068 0.12,-0.14776 0.051,-0.18395 -0.085,-0.35886 -0.129,-0.16585 -0.372,-0.11862 -0.143,-0.0111 -0.06,-0.20103 -0.103,-0.18296 -0.212,-0.0351 -0.102,-0.0211 -0.106,0.0563 -0.06,0.14777 -0.017,0.11358 -0.189,0.0865 -0.386,-0.0171 -0.383,-0.0824 -0.269,-0.0272 -0.179,0.0211 -0.684,0.28045 -0.225,0.0371 -0.734,-0.0211 -0.416,-0.0593 -0.296,-0.0101 -0.21,0.0875 -0.262,0.20807 -0.219,0.11158 -0.101,-0.0121 -0.062,-0.0875 -0.086,-0.11861 -0.027,-0.31362 -0.109,-0.34277 0.072,-0.17994 0.216,-0.12866 0.075,-0.26537 -0.067,-0.39806 -0.004,-0.27943 0.058,-0.16185 -0.078,-0.39202 -0.216,-0.62222 -0.305,-0.5056 -0.394,-0.39103 -0.258,-0.37293 -0.122,-0.35684 0.046,-0.8534 0.119,-0.75088 0.094,-0.59608 -0.027,-0.99816 -0.267,-0.64936 -0.058,-0.6976 0.151,-0.74585 0.022,-0.51064 -0.1,-0.26135 -0.068,-0.0392 -0.086,-0.0262 -0.675,-0.0252 -0.899,-0.0332 -0.784,-0.0101 -0.851,-0.0101 -0.139,-0.0945 -0.063,-0.17389 0.003,-0.17189 0.174,-0.52672 -0.025,-0.0432 -0.302,-0.0111 -0.82,0.0855 -0.541,0.0844 -0.343,0.0282 -0.603,0.14375 -0.373,0.30357 -0.122,0.38096 0.01,0.31463 -0.021,0.23019 -0.17,0.24024 -0.134,0.27642 -0.005,0.14576 -0.082,0.7358 -0.556,0.0985 -0.556,0 -0.13,-0.009 -0.687,-0.1759 -0.255,-10e-4 -0.218,0.0925 -0.421,0.0905 -0.402,0.0663 -0.405,0.21812 -0.108,0.0191 -0.269,-0.11358 -0.376,0.0111 -0.381,0.0542 -0.178,0.0242 -0.123,-0.0663 -0.35,-0.54884 -0.466,-0.73078 -0.253,-0.45837 -0.094,-0.11961 -0.162,-0.15782 -0.222,-0.29854 -0.092,-0.28347 0.039,-0.26838 -0.13,-0.36187 -0.299,-0.45536 -0.197,-0.43424 -0.094,-0.41514 -0.023,-0.35383 0.047,-0.29552 -0.057,-0.21713 -0.163,-0.13972 -0.088,-0.17792 -0.064,-0.0734 -0.135,-0.16787 -0.297,-0.18495 -0.326,-0.0975 -0.716,-0.002 -0.935,-0.003 -0.847,0.0141 -0.942,0.0161 -0.954,0.0161 -0.257,0.0242 -0.728,0.0111 -0.583,-0.0472 -0.216,-0.0302 -0.38,-0.0231 -0.6,-0.005 -0.325,0.0181 -0.778,0.001 -0.071,0.004 -0.123,0.0522 -0.332,-0.0724 -0.326,0.0242 -0.182,-0.0804 -0.4,0.0502 -0.194,0.0663 -0.311,0.23421 -0.467,0.12163 -0.173,-0.0101 -0.115,-0.0391 -0.271,-0.25733 -0.21,-0.24728 -0.075,-0.13771 0.117,-0.0342 0.367,-0.0522 0.276,-0.0252 0.054,-0.0653 0.042,-0.76394 0.01,-0.77501 -0.098,-0.10253 -0.096,-0.0623 -0.004,-0.0532 0.143,-0.0975 0.199,-0.11358 0.064,-0.0512 0.22,-0.20506 0.435,-0.47445 0.331,-0.1166 0.308,-0.12465 0.043,-0.0452 0.041,-0.0925 0.138,0.007 0.044,0.0442 0.068,0.10052 0.121,0.14073 0.219,0.16687 0.22,0.17992 0.11,0.0231 0.177,-0.0915 0.206,-0.1357 0.303,-0.0985 0.072,-0.0925 0.039,-0.19802 0.024,-0.21109 0.026,-0.24929 0.062,-0.0342 0.109,-0.0242 0.201,0.0704 0.092,0.0734 0.165,0 0.105,-0.0663 0.192,-0.12263 0.244,-0.0492 0.261,-0.11861 0.251,-0.15078 0.118,-0.0141 0.125,0.19802 0.112,0.13771 0.02,0.0865 -0.112,0.16485 -0.125,0.21713 0.105,0.27039 0.025,0.26236 -0.003,0.15882 0.085,0.0643 0.058,0.0302 0.09,-0.0371 0.179,0.0111 0.215,0.0824 0.207,-0.009 0.2,-0.10153 0.373,-0.39403 0.545,-0.68755 0.452,-0.43123 0.357,-0.17591 0.242,-0.20506 0.127,-0.23622 0.208,-0.15983 0.434,-0.12765 0.33,-0.14476 0.33,-0.47143 0.44,-0.84838 0.123,-0.75692 0.075,-0.46037 -0.043,-1.5872 -0.029,-0.52069 0.067,-0.28346 0.164,-0.19501 0.448,-0.41314 0.301,-0.33875 0.23,-0.39604 0.441,-0.90367 0.194,-0.2915 0.087,-0.13069 0.266,-0.24023 0.373,-0.2121 0.48,-0.18194 0.741,-0.62925 0.589,-0.63327 -0.08,-0.76093 0.138,-0.63126 0.321,-0.80214 0.105,-0.84939 -0.11,-0.89563 0.046,-0.73279 0.308,-0.85139 0.128,-0.31664 0.043,-0.51767 -0.002,-0.82326 0.391,-1.12582 0.37,-0.67548 0.414,-0.7539 0.158,-0.45636 0.21,-0.60914 -0.033,-0.48953 -0.038,-0.56292 0.104,-0.77399 -0.039,-0.45535 -0.147,-0.39605 0.075,-0.25029 0.297,-0.10152 0.37,-0.39605 0.664,-1.03434 0.716,-0.50461 0.498,-0.15983 0.519,0.0171 0.339,0.0905 0.156,0.16284 0.393,0.24427 0.628,0.32267 0.47,0.40409 0.26,0.40709 0.202,0.22115 0.25,0.0764 0.409,-0.0332 0.457,0.0955 0.476,0.22818 0.293,0.0844 0.108,-0.0593 0.23,0.0332 0.526,0.18697 0.419,-0.10254 0.621,0.0774 1.442,0.33373 0.077,-0.0563 0.034,-0.0131 0.123,-0.1347 0.313,-0.66845 0.265,-0.41112 0.124,-0.1548 0.306,-0.21712 0.36,-0.0553 0.345,0.0191 0.289,0.0955 0.264,0.11057 0.292,0.001 0.299,-0.10655 0.444,-0.19601 0.468,-0.12767 0.402,-0.14072 0.662,-0.24628 0.259,-0.11358 0.329,-0.0442 0.922,0.22517 0.597,-0.14877 0.244,0.0432 0.517,-0.15983 0.094,-0.10755 0.329,-0.54381 0.35,-0.15882 0.53,0.0804 0.298,0.0844 0.992,0.2322 1.288,0.24225 0.379,0.0371 0.154,0.0272 0.134,-0.0382 0.423,-0.30558 0.143,-0.0432 0.121,0.005 z" title="Democratic Republic of Congo" id="CD" class=" " style="fill: rgb(0, 0, 0); stroke-width: 1.2px;"></path>
  
  
  
  
  
  <path d="m 192.49,80.70911 -0.243,0.38298 -0.311,0.49053 -0.353,0.55688 -0.221,0.004 -0.171,-0.0322 -0.118,-0.0945 -0.242,-0.10354 -0.273,-0.007 -0.26,0.0965 -0.44,0.11961 -0.398,0.0392 -0.321,0.0663 -0.265,0.0774 -0.24,-0.0422 -0.207,-0.0694 -0.046,-0.59306 -0.048,-0.64332 0.005,-0.5036 0.073,-0.27744 0.065,-0.10856 0.376,-0.38298 0.13,-0.15681 0.429,-0.63529 0.369,-0.54581 0.275,-0.40711 0.085,-0.0804 0.116,-0.0784 0.082,0.0231 0.536,0.39303 0.094,-0.0111 0.179,-0.12163 0.162,-0.42017 0.114,-0.1538 0.049,0.004 0.344,-0.11761 0.311,-0.1337 0.04,0.13872 0.47,0.56493 0.155,0.27743 0.157,0.50862 -0.082,0.28246 -0.123,0.18496 -0.181,0.16384 -0.629,0.40308 -0.699,0.25633 -0.446,0.51365 -0.332,-0.0352 0.051,0.194 0.123,0.0221 0.194,-0.0372 0.385,-0.14876 0.341,-0.0714 0.369,-0.005 0.334,0.0643 z" title="Djibouti" id="DJ" class=" " style="fill: rgb(0, 0, 0); stroke-width: 1.2px;"></path>
  
  
  
  <path d="m 192.127,77.2432 -0.312,0.1337 -0.344,0.11761 -0.049,-0.004 -0.114,0.1538 -0.163,0.42017 -0.179,0.12263 -0.094,0.0111 -0.535,-0.39303 -0.083,-0.0221 -0.116,0.0774 -0.084,0.0804 -0.249,-0.29854 -0.182,-0.26336 -0.254,-0.31463 -0.247,-0.14173 -0.265,-0.17792 -0.26,-0.41314 -0.265,-0.45535 -0.393,-0.37292 -0.735,-0.53778 -0.675,-0.68152 -0.516,-0.71268 -0.333,-0.37192 -0.142,-0.0945 -0.688,-0.23321 -0.48,-0.32669 -0.37,-0.26939 -0.227,-0.0724 -0.22,-0.009 -0.469,0.0532 -0.39,-0.16888 -0.164,0 -0.261,-0.0492 -0.205,-0.0603 -0.241,0.0724 -0.494,0.12063 -0.203,-0.0262 -0.11,-0.16786 -0.065,-0.12867 -0.172,-0.13369 -0.142,0 -0.079,0.11961 -0.516,0.30257 -0.863,0.16786 -0.205,-0.0121 -0.153,-0.12162 -0.436,-0.51969 -0.125,-0.0844 -0.099,-0.008 -0.202,-0.0613 -0.189,-0.0995 -0.166,-0.2131 -0.167,-0.12162 -0.179,0.41715 -0.314,0.72776 -0.168,0.39001 -0.217,0.5016 -0.068,0.0151 -0.111,-0.0362 -0.431,-0.62523 -0.271,-0.23522 -0.202,0.0222 -0.147,0.11559 -0.093,0.20908 -0.101,0.12866 -0.109,0.0502 -0.235,-0.0252 -0.361,-0.0995 -0.373,0.0211 -0.384,0.14274 -0.051,0.004 -0.09,-0.8323 -0.06,-0.55688 -0.064,-0.59004 -0.06,-0.55789 0.267,-0.34277 0.124,-0.32568 0.318,-1.05947 0.127,-0.2111 0.25,-0.56793 0.035,-0.16485 0.247,-0.71771 -0.023,-0.47747 -0.05,-0.48249 0.135,-0.28648 0.12,-0.22918 -0.008,-0.193 0.054,-0.45133 0.039,-0.11258 0.147,-0.007 0.303,0.0583 0.223,-0.0452 0.257,0 0.198,-0.0141 0.117,-0.13771 0.161,-0.52672 0.104,-0.10555 0.081,-0.0322 0.227,-0.0975 0.194,-0.1538 0.158,-0.10956 0.059,-0.0222 0.167,-0.0141 0.167,-0.0643 0.077,-0.0744 0.211,-0.0593 0.207,0.0332 0.139,-0.0653 0.093,-0.0422 0.105,-0.003 0.097,-0.0613 0.039,-0.0935 0.063,-0.0603 0.161,-0.13671 0.074,-0.0995 0.033,-0.10052 0.033,-0.0794 0.071,-0.1347 0.282,-0.33774 0.243,-0.19602 0.848,1.70078 0.344,1.00319 0.304,1.0444 0.225,1.56508 0.214,0.79612 0.346,0.39202 0.237,0.74083 0.203,0.0282 0.147,0.20305 0.252,0.69459 0.181,0.25834 0.095,-0.22215 -0.011,-0.12766 -0.071,-0.2141 0.065,-0.27543 0.141,-0.16485 0.322,0.22516 0.176,0.16987 0.047,0.34076 0.074,0.18898 0.336,0.40007 0.284,0.1166 0.368,0.0292 0.308,0.0875 0.247,0.14676 0.463,0.4061 1.059,0.35584 0.851,1.08963 0.501,0.7539 1.647,1.14088 0.285,0.54583 0.148,0.53476 0.346,-0.0252 0.594,0.58402 0.173,0.44328 0.486,0.16084 0.083,-0.26235 0.235,0.21511 0.1,0.33673 z m -8.532,-9.76544 0.094,0.28145 -0.274,-0.10756 -0.045,-0.0583 0.12,-0.11158 0.026,-0.0683 0.079,0.0643 z m 0.181,1.12581 0.116,0.1548 0.081,-0.0151 0.064,-0.0512 0.045,-0.10957 0.443,0.21612 -0.025,0.14374 -0.265,0.007 -0.305,-0.0613 -0.283,0.0211 -0.337,-0.0623 -0.078,-0.24427 0.215,0.11761 0.111,-0.0292 0.02,-0.0312 -0.152,-0.16485 -0.214,-0.0331 0.015,-0.12968 0.096,-0.0512 0.059,-0.0633 -0.123,-0.17792 0.241,0.0402 0.152,0.10755 0.1,0.12565 0.024,0.2905 z" title="Eritrea" id="ER" class=" " style="fill: rgb(0, 0, 0); stroke-width: 1.2px;"></path>
  <path d="m 178.978,72.28358 0.205,0.0121 0.863,-0.16786 0.516,-0.30257 0.078,-0.11961 0.142,0 0.172,0.13369 0.065,0.12867 0.11,0.16887 0.203,0.0262 0.493,-0.11962 0.242,-0.0724 0.204,0.0593 0.261,0.0492 0.164,0 0.39,0.16987 0.468,-0.0542 0.221,0.009 0.227,0.0724 0.369,0.26939 0.481,0.32669 0.688,0.2332 0.142,0.0945 0.332,0.37192 0.516,0.71268 0.675,0.68152 0.736,0.53778 0.393,0.37192 0.265,0.45535 0.26,0.41314 0.265,0.17792 0.246,0.14073 0.255,0.31462 0.182,0.26336 0.248,0.29854 -0.275,0.40711 -0.369,0.54581 -0.429,0.63529 -0.13,0.15681 -0.376,0.38298 -0.065,0.10856 -0.073,0.27744 -0.005,0.5036 0.048,0.64332 0.046,0.59306 0.207,0.0694 0.24,0.0423 0.265,-0.0774 0.321,-0.0663 0.398,-0.0392 0.44,-0.11961 0.26,-0.0965 0.273,0.007 0.242,0.10354 0.118,0.0945 0.171,0.0322 0.221,-0.004 -0.047,0.11158 -0.121,0.16284 -0.149,0.16283 -0.131,0.16889 -0.291,0.47244 -0.009,0.0603 0.036,0.0935 0.157,0.21511 0.164,0.3488 0.092,0.31966 0.071,0.15479 0.199,0.17692 0.287,0.36488 0.152,0.24627 0.317,0.13168 0.103,0.31162 0.237,0.45836 0.256,0.36589 0.248,0.28648 0.276,0.11057 0.111,0.009 0.579,0.52973 0.441,0.40309 0.109,0.0643 0.795,0.26437 0.915,0.30357 0.734,0.24325 0.935,0.3096 0.922,0.30659 0.865,0.2915 1.214,0.41012 0.978,0.3307 0.772,0.26136 0.164,0.0814 0.919,0 0.933,0 0.955,0 -0.692,0.67247 -0.783,0.76093 -0.822,0.79813 -0.53,0.51365 -0.839,0.81521 -0.699,0.67751 -0.719,0.73981 -0.65,0.66947 -0.846,0.92678 -0.548,0.5991 -0.858,0.93985 -0.539,0.58904 -0.082,0.0342 -0.771,-0.0442 -0.75,-0.0442 -0.958,-0.0552 -0.11,0.002 -0.279,0.0553 -0.169,0.0542 -0.69,0.15881 -0.127,0.0412 -0.573,0.2523 -0.585,0.29754 -0.308,0.22918 -0.238,0.33172 -0.102,0.23622 -0.107,0.10353 -0.182,0.0905 -1.225,0.22416 -0.356,0.0302 -0.573,0.17893 -0.306,0.29954 -0.087,0.15078 -0.411,-0.004 -0.718,0.0443 -0.307,0.0482 -0.15,0.008 -0.275,-9.9e-4 -0.226,-0.0542 -0.15,-0.0814 -0.186,-0.18394 -0.416,-0.37293 -0.302,-0.23321 -0.663,0.26839 -0.597,0.26638 -0.847,0.37895 -0.483,0.27141 -0.145,0.2724 -0.373,0.49557 -0.333,0.30457 -0.125,0.0371 -0.755,-0.0633 -0.272,-0.0623 -0.45,-0.0553 -0.605,-0.10755 -0.405,-0.1156 -0.44,-0.0141 -0.634,-0.0392 -0.391,-0.0834 -0.397,-0.27543 -0.51,-0.3307 -0.526,-0.34076 -0.542,-0.35082 -0.64,-0.40409 -0.699,-0.44128 -0.16,-0.0442 -0.07,-0.008 -0.759,-0.0201 -0.789,-0.0211 -0.533,-0.0141 -0.168,-0.0512 -0.122,-0.10051 -0.165,-0.32669 -0.208,-0.2322 -0.232,-0.29654 -0.019,-0.40006 0.064,-0.43727 0.06,-0.14474 -0.034,-0.14374 0.009,-0.19803 -0.13,-0.18394 -0.776,-0.2111 -0.126,0.0161 -0.129,0.0794 -0.147,0.0563 -0.106,-0.0532 -0.065,-0.0784 -0.002,-0.12968 0.013,-0.0965 -0.045,-0.0532 -0.247,-0.19703 -0.232,-0.25933 -0.14,-0.28648 -0.136,-0.23522 -0.068,-0.52571 -0.172,-0.32367 -0.168,-0.39605 -0.249,-0.75491 -0.108,-0.26034 -0.202,-0.1749 -0.213,-0.16183 -0.221,-0.33473 -0.575,-0.29553 -0.221,-0.23019 -0.383,-0.39907 -0.095,-0.20204 -0.028,-0.20003 -0.119,-0.18798 -0.212,-0.21209 -0.663,-0.45635 -0.183,-0.0542 -0.237,-0.0492 -0.348,-0.0452 -0.467,-0.10454 -0.408,-0.17892 -0.185,-0.12666 -0.044,-0.0875 0.038,-0.14675 0.148,-0.2523 0.28,-0.59608 0.194,-0.41113 0.132,-0.1166 0.359,-0.0292 0.382,0.0121 0.279,0.0302 0.394,0.005 0.472,-0.0352 0.187,-0.13771 0.148,-0.15078 0.062,-0.10555 0.02,-0.26638 -0.001,-0.2141 -0.03,-0.82124 -0.018,-0.5026 -0.021,-0.57497 0.003,-0.1156 0.004,-0.14776 0.115,-0.61417 0.108,-0.35182 0.074,-0.18596 0.298,-0.58703 0.056,-0.18797 0.01,-0.17189 -0.11,-0.78908 0.191,-0.37192 0.246,-0.3679 0.215,-0.15782 0.179,-0.10654 0.084,0.0452 0.206,0.16987 0.27,0.16788 0.126,-0.0372 0.185,-0.14676 0.138,-0.1548 -0.018,-0.27743 0.124,-0.56994 -0.024,-0.32971 0.133,-0.40811 0.145,-0.57598 0.065,-0.36388 0.083,-0.196 0.393,-0.40208 0.338,-0.56894 0.215,-0.41615 0.412,-0.67951 0.208,-0.24828 0.169,-0.10656 0.252,-0.0683 0.469,-0.0623 0.337,-0.0573 0.049,-0.0885 0.029,-0.13872 0.005,-0.30458 0.065,-0.5237 0.146,-0.51164 0.172,-0.38801 0.093,-0.17691 0.111,-0.16988 0.125,-0.28849 0.158,-0.62321 -0.009,-0.4232 0.226,-0.776 0.05,-0.004 0.384,-0.14274 0.373,-0.0211 0.361,0.0995 0.235,0.0252 0.11,-0.0502 0.101,-0.12867 0.093,-0.20908 0.148,-0.1156 0.202,-0.0221 0.27,0.23522 0.431,0.62422 0.111,0.0371 0.069,-0.0161 0.216,-0.50159 0.169,-0.38901 0.314,-0.72776 0.179,-0.41715 0.167,0.12063 0.166,0.21309 0.188,0.0995 0.203,0.0613 0.098,0.008 0.125,0.0845 0.436,0.51968 z" title="Ethiopia" id="ET" class=" " style="fill: rgb(0, 0, 0); stroke-width: 1.2px;"></path>
  
  
  <path d="m 56.15,4.24006 -0.009,0.0472 0.005,0.0342 -0.007,0.0945 -0.019,-0.002 -0.032,-0.0482 0.003,-0.0653 0.031,-0.0171 -0.021,-0.0402 z" title="Gibraltar" id="GI" class=" " style="fill: rgb(0, 0, 0); stroke-width: 1.2px;"></path>
  
  
  <path d="m 203.876,145.81647 -0.02,0.008 -0.039,-0.009 -0.008,-0.0492 0.05,-0.009 z" title="Glorioso Islands" id="GO" class=" " style="fill: rgb(0, 0, 0); stroke-width: 1.2px;"></path>
  
  
  
  
  
  <path d="m 191.12,161.73571 -0.017,0.004 -0.029,-0.006 -0.049,-0.0472 0.039,-0.0171 0.065,0.0381 z" title="Juan De Nova Island" id="JU" class=" " style="fill: rgb(0, 0, 0); stroke-width: 1.2px;"></path>
  <path d="m 188.668,102.0001 -0.345,0.49456 -0.414,0.59306 -0.763,1.09064 -0.58,0.57396 -0.438,0.43424 -0.041,0.0784 0.002,0.4835 0.005,1.1821 0.009,2.36321 0.009,2.36221 0.009,2.3622 0.004,1.1811 0.002,0.39705 0.385,0.49657 0.376,0.48551 0.497,0.64131 0.267,0.34378 0.044,0.11459 -0.014,0.23018 -0.409,0.48149 -0.335,0.21914 -0.451,0.10453 -0.135,-0.0201 -0.177,-0.0683 -0.069,0.1156 -0.052,0.17993 -0.1,-0.0383 -0.075,-0.0532 0.045,0.31965 0.046,0.15782 -0.069,0.21109 -0.219,0.18596 -0.02,0.15782 -0.474,0.41213 -0.673,0.0452 -0.354,0.20506 -0.157,0.16787 -0.12,0.36689 0.042,0.56191 -0.188,0.43223 -0.035,0.21712 -0.348,0.28045 -0.154,0.25733 -0.114,0.26236 -0.099,0.11459 -0.118,0.58703 -0.162,0.35684 -0.044,0.11862 -0.04,0.10655 -0.125,0.20908 -0.082,0.14474 -0.059,0.0945 -0.41,0.91473 -0.32,0.41313 -0.251,-0.0472 -0.167,0.15982 -0.018,0.0754 -0.089,-0.0422 -0.209,-0.15179 -0.431,-0.31061 -0.431,-0.3106 -0.431,-0.3106 -0.431,-0.31061 -0.431,-0.3106 -0.431,-0.31061 -0.431,-0.3106 -0.431,-0.31061 -0.253,-0.18193 -0.111,-0.10756 -0.088,-0.21411 -0.042,-0.0533 -0.115,-0.0673 -0.135,-0.0151 -0.039,-0.0412 10e-4,-0.10354 0.046,-0.14876 0.159,-0.28448 0.017,-0.16786 -0.031,-0.18998 -0.049,-0.30458 -0.043,-0.0694 -0.286,-0.15982 -0.598,-0.33372 -0.598,-0.33373 -0.598,-0.33372 -0.599,-0.33373 -0.598,-0.33372 -0.598,-0.33373 -0.598,-0.33372 -0.598,-0.33373 -0.599,-0.33372 -0.598,-0.33372 -0.599,-0.33372 -0.598,-0.33373 -0.598,-0.33372 -0.598,-0.33373 -0.598,-0.33372 -0.599,-0.33373 -0.225,-0.12565 -0.202,-0.10554 -0.214,0 -0.009,-0.47747 0.068,-1.21527 -0.008,-1.06752 0.061,-0.53476 0.264,-0.33876 0.122,-0.24627 0.087,-0.34377 0.138,-0.28045 0.313,-0.22818 0.056,-0.12565 0.332,-0.38096 0.199,-0.48954 0.15,-0.16686 0.188,-0.1538 0.132,-0.0814 0.218,-0.0814 0.171,-0.0462 0.031,-0.0392 0.015,-0.0794 -0.057,-0.30357 0.073,-0.0995 0.116,-0.20305 0.133,-0.18898 0.12,-0.12062 0.067,-0.12363 0.031,-0.21311 0.005,-0.15178 -0.001,-0.24728 -0.038,-0.5619 -0.141,-0.47043 -0.087,-0.52673 0.064,-0.17288 -0.111,-0.3086 -0.055,-0.0171 -0.09,-0.0673 -0.116,-0.2915 -0.087,-0.26538 -0.054,-0.0663 -0.376,-0.2322 -0.187,-0.54783 -0.21,-0.12164 -0.114,-0.54481 -0.022,-0.15479 0.119,-0.54382 -0.012,-0.12464 -0.126,-0.11459 -0.353,-0.11761 -0.286,-0.22416 0.037,-0.0784 0.021,-0.0814 -0.151,-0.0542 -0.438,-0.92981 0.563,-0.55888 0.571,-0.56593 0.729,-0.7167 0.669,-0.6584 0.578,-0.56894 0.516,-0.50762 -0.013,0.0965 0.002,0.12867 0.064,0.0784 0.106,0.0542 0.147,-0.0573 0.129,-0.0794 0.126,-0.0171 0.775,0.21109 0.13,0.18395 -0.009,0.19803 0.034,0.14373 -0.06,0.14475 -0.064,0.43626 0.02,0.40006 0.231,0.29653 0.208,0.2322 0.165,0.32669 0.122,0.10052 0.168,0.0522 0.533,0.0141 0.789,0.0211 0.759,0.0201 0.069,0.008 0.161,0.0442 0.699,0.44027 0.64,0.40409 0.542,0.35081 0.526,0.34076 0.511,0.33172 0.396,0.27442 0.391,0.0834 0.635,0.0403 0.439,0.0141 0.406,0.11559 0.604,0.10756 0.45,0.0553 0.272,0.0623 0.755,0.0633 0.125,-0.0372 0.333,-0.30457 0.373,-0.49556 0.146,-0.27241 0.482,-0.2714 0.847,-0.37795 0.597,-0.26739 0.664,-0.26838 0.302,0.2322 0.416,0.37292 0.186,0.18395 0.149,0.0814 0.226,0.0542 0.275,9.9e-4 0.15,-0.008 0.307,-0.0482 0.718,-0.0442 0.422,0.0121 z m -2.497,17.20489 -0.104,0.0242 0.054,-0.16083 0.308,-0.20607 0.125,0.0462 0.024,0.0462 -0.007,0.0433 -0.052,0.0422 -0.348,0.16486 z" title="Kenya" id="KE" class=" " style="fill: rgb(0, 0, 0); stroke-width: 1.2px;"></path>
  <path d="m 599.589,120.9098 0.092,0.0532 0.07,0.0724 0.034,0.10052 0,0.0252 -0.054,-10e-4 -0.065,-0.0312 -0.047,-0.0422 -0.024,-0.0111 -0.01,-0.009 0.056,0.006 0.064,0.0422 0.048,0.0191 0,-0.0492 -0.058,-0.0855 -0.034,-0.0292 -0.044,-0.0252 -0.05,-0.0171 -0.034,0.0151 -0.019,0.007 -0.01,-0.0201 0.01,-0.0181 0.018,-0.0181 0.06,0.0161 z m 1.719,1.03635 -0.013,0.0211 -0.02,-0.0181 0.014,-0.0331 0.012,-0.0282 0.019,0.0151 -0.012,0.0433 z m -0.416,3.72926 -0.027,0.0131 -0.032,-0.004 -0.021,-0.0191 0,-0.0302 0.026,-0.0211 0.037,0.007 0.021,0.0272 0,0.0272 z m -2.754,0.1337 0.018,0.0191 0.041,-0.005 0.036,-0.003 -0.022,0.0191 -0.074,0.008 -0.036,-0.0482 0.045,-0.0371 0.04,-0.006 0,0.0101 0,0.0111 -0.019,0 -0.03,0.009 0,0.0232 z m -6.45,0.46137 0.033,0.0372 0,0.0181 -0.016,-0.003 -0.048,-0.0111 -0.016,-0.0221 0.035,0.0151 0.015,-0.003 -0.032,-0.0331 -0.028,-0.0242 -0.021,-0.0101 0,-0.0121 0.026,0.006 0.052,0.0422 z m -967.75,-24.1186 0.224,0.23724 -0.043,0.11961 -0.162,-0.0111 -0.074,-0.0423 0.126,-0.0211 0.021,-0.0442 -0.058,-0.0693 -0.077,-0.0482 -0.053,0 -0.013,0.0955 -0.087,-0.0744 0.051,-0.0744 0.062,-0.0492 0.083,-0.0181 z m 932.62,2.23053 -0.178,0.0935 -0.054,-0.0151 0.211,-0.13268 -0.001,0.0161 0.022,0.0383 z m -0.352,0.21813 -0.208,0.10856 -0.056,-0.0583 0.075,-0.002 0.14,-0.10455 0.169,-0.008 -0.02,0.0583 -0.1,0.006 z m -926.664,3.35433 0.467,0.32467 -0.198,0.0231 -0.488,-0.15681 -0.446,-0.32065 0.133,-0.0693 0.065,0.1156 0.203,0.10755 0.12,-0.22617 0.079,-0.0512 -0.356,-0.2332 0.141,0.0121 0.337,0.15883 -0.057,0.31563 z m 927.153,0.0272 0.014,0.0643 -0.16,-0.17591 -0.095,-0.11359 0.006,-0.0492 0.043,0.0312 0.053,0.0553 0.035,0.0442 0.104,0.14373 z m 0.031,0.35987 -0.102,0.0121 0.076,-0.0403 0.021,-0.0553 -0.012,-0.1739 0.04,0.0141 0.014,0.0714 0.007,0.10454 -0.044,0.0673 z m 0.024,1.05243 -0.075,0.0101 0.049,-0.0573 0.321,-0.0633 0.028,-0.0181 0.052,0.0351 -10e-4,0.0332 -0.023,0.0171 -0.159,9.9e-4 -0.125,0.0302 -0.067,0.0121 z m -0.016,0.92177 0.151,0.11057 -0.02,0.0764 -0.051,0.0875 -0.197,0.22316 -0.06,-0.0211 0.192,-0.20204 0.074,-0.13369 -0.11,-0.10253 -0.044,0.0222 -0.018,0 -0.038,-0.0955 0.038,0 0.083,0.0352 z m 4.143,5.08627 -0.091,0.0764 -0.035,-0.0693 0.045,-0.0855 -0.076,-0.35484 -0.126,-0.0482 -0.075,-0.10655 0.036,0 0.126,0.0975 0.101,0.0443 0.059,0.2332 0.036,0.2131 z m -13.913,0.20104 -0.026,0.006 -0.053,-0.0292 0.007,-0.0361 0.037,-0.0161 0.047,0.0272 -0.012,0.0482 z m 14.655,0.9479 0.017,0.14475 -0.064,-0.0191 -0.021,-0.0563 -0.021,-0.14576 -0.067,-0.14273 0.076,0.0382 0.063,0.11158 0.017,0.0694 z m -925.381,8.06868 -0.008,0.0171 -0.034,-0.0222 -0.066,-0.0412 -0.056,-0.0452 -0.001,-0.0191 0.079,-0.0272 0.101,-0.0211 0.022,0.0292 -0.019,0.0412 -0.018,0.0885 z m -2.547,4.32736 -0.065,0.0151 -0.076,0 -0.038,-0.0372 -0.002,-0.0302 0.026,0 0.024,0.005 0.108,0.005 0.028,0.0221 -0.005,0.0201 z m 11.454,16.48516 -0.023,0.0453 -0.044,-0.0161 -0.026,-0.0573 -0.009,-0.0623 0.017,-0.0502 0.029,0.002 0.033,0.0623 0.023,0.0764 z" title="Kiribati" id="KI" class=" " style="fill: rgb(0, 0, 0); stroke-width: 1.2px;"></path>
  <path d="m 193.107,146.75029 -0.053,0.0382 -0.256,-0.16383 -0.146,-0.0382 -0.215,-0.26436 0.083,-0.91473 0.069,-0.11761 0.052,-0.0472 0.119,-0.0171 0.145,0.11459 -0.038,0.58804 0.191,0.39604 0.123,0.31464 -0.074,0.11157 z m 2.836,0.51667 0.141,0.39604 -0.001,0.29855 -0.06,0.0945 -0.126,-0.0623 -0.232,-0.23724 -0.441,-0.23119 0.203,-0.0191 0.118,0.0231 0.125,-0.0211 0.078,-0.13067 0.016,-0.0774 0.11,-0.0623 0.069,0.0292 z m -1.93,0.64634 0.197,0.1759 -0.548,-0.0724 -0.086,-0.15883 -0.004,-0.1166 0.205,0.0252 0.236,0.14676 z" title="Comoros" id="KM" class=" " style="fill: rgb(0, 0, 0); stroke-width: 1.2px;"></path>
  
  
  
  
  
  
  
  
  
  <path d="m 232.918,171.83789 -0.354,0.0845 -0.398,-0.0292 -0.154,-0.15982 -0.03,-0.0673 0.133,-0.0633 -0.008,-0.20607 0.066,-0.32568 0.085,-0.13369 0.197,-0.11961 0.081,-0.26236 0.17,-0.17491 0.227,-0.0221 0.226,0.32367 0.154,0.34076 -0.032,0.34277 -0.156,0.12465 -0.052,0.19802 z" title="Mauritius" id="MU" class=" " style="fill: rgb(0, 0, 0); stroke-width: 1.2px;"></path>
  <path d="m 169.234,145.82451 -0.373,-0.007 -0.469,0.0371 -0.115,0.0905 -0.035,0.20003 -0.147,0.41213 -0.082,0.15179 -0.173,0.27743 -0.244,0.39102 -0.051,0.12766 0.008,0.13168 0.144,0.53175 0.151,0.55888 0.048,0.21914 0.107,0.74384 0.06,0.52672 0.009,0.3096 0.051,0.41414 0.134,0.22416 0.141,0.14072 0.53,0.0844 0.158,0.10354 0.3,0.26436 0.656,0.73178 0.36,0.46742 0.317,0.41112 0.566,0.76495 0.44,0.59508 0.055,0.55889 0.073,0.0814 -0.148,0.41515 -0.097,0.67046 0.07,0.4453 -0.029,0.76093 -0.081,0.81119 -0.101,0.29051 -0.13,0.10956 -0.308,0.0875 -0.676,0.10152 -0.101,0.0955 -0.087,0.15782 -0.137,0.37493 -0.161,0.37795 -0.051,0.16184 0.031,0.0382 0.145,0.193 0.144,0.49355 0.026,0.84737 -0.05,0.0633 -0.2,0.0371 -0.215,-0.0111 -0.089,-0.0482 -0.08,-0.0945 -0.058,-0.18093 0.141,-0.12565 0.05,-0.22115 -0.09,-0.18897 -0.181,-0.0423 -0.23,-0.17389 -0.49,-0.56592 -0.41,-0.39706 -0.238,-0.32869 -0.243,-0.13068 -0.07,-0.0804 -0.059,-0.13872 -0.001,-0.20003 0.022,-0.14676 -0.076,-0.16586 -0.246,-0.25532 -0.112,-0.14173 -0.006,-0.16887 0.104,-0.16285 0.21,-0.19902 0.159,-0.40308 0.057,-0.26034 0.297,-0.52372 0.041,-0.45434 0.006,-0.36287 -0.018,-0.27141 -0.076,-0.55587 -0.053,-0.38399 -0.366,-0.50259 -0.119,-0.0472 -0.347,0.0442 -0.3,0.0734 -0.147,0.10454 -0.223,0.005 -0.585,0.0875 -0.184,0.0371 -0.106,0.0905 -0.062,0.0191 -0.368,-0.388 -0.323,-0.41917 -0.411,-0.71168 -0.117,-0.0855 -0.15,-0.20908 -0.125,0.0522 -0.172,0.14676 -0.093,0.0403 -0.048,-0.004 -0.031,-0.0371 -0.038,-0.0935 -0.133,-0.26839 -0.149,-0.19199 -0.158,-0.0744 -0.129,-0.0885 0.057,-0.0854 0.06,-0.0613 -0.026,-0.0633 -0.072,-0.0925 -0.28,-0.13369 -0.004,-0.0573 0.247,-0.1156 0.156,-0.13771 0.106,-0.13168 0.134,-0.28849 0.109,-0.28748 0.082,-0.0935 0.028,-0.18999 -0.019,-0.2141 0.055,-0.27342 0.026,-0.25833 -0.083,-0.10052 -0.07,-0.1739 0.083,-0.29553 0.13,-0.20404 0.623,-0.2121 0.434,-0.19199 0.092,-0.0834 0.147,-0.16384 0.082,-0.15983 -0.059,-0.0472 -0.341,-0.004 -0.084,-0.0613 -0.246,-0.56191 0.136,-0.64332 0.012,-0.2523 -0.003,-0.31362 -0.043,-0.22818 -0.108,-0.0955 -0.066,-0.12263 0.018,-0.33473 0.1,-0.0402 0.216,-0.44229 0.096,-0.26035 -0.115,-0.20807 -0.127,-0.29653 -0.058,-0.18898 -0.032,-0.0623 0.088,-0.1166 0.146,-0.11258 0.164,-0.0312 0.173,-0.0532 0.545,-0.54885 0.007,-0.10655 -0.099,-0.18395 -0.204,-0.27743 -0.045,-0.11258 -0.024,-0.33373 -0.081,-0.0995 -0.299,-0.22416 -0.23,-0.23621 0.072,-0.23924 0.039,-0.26136 -0.114,-0.14374 -0.169,-0.14877 -0.105,-0.21712 -0.048,-0.16183 -0.133,-0.0643 -0.123,-0.002 -0.09,0.10052 -0.097,-0.009 -0.118,-0.0352 -0.039,-0.13972 -0.007,-0.15077 -0.081,-0.10254 -0.078,-0.14273 -0.01,-0.0754 0.049,-0.0222 0.103,-0.0131 0.439,0.28648 0.266,0.0131 0.296,0.0532 0.253,0.25231 0.131,0.0332 0.167,-0.0352 0.478,-0.0262 0.192,0.0362 0.247,0.14776 0.097,0.0201 0.155,0.006 0.027,-0.0402 0.016,-0.0875 -0.027,-0.17692 0.035,-0.0955 0.094,-0.10354 0.261,0.12063 0.652,0.55084 0.02,0.0714 0.416,0.54683 0.135,0.23119 0,0.12263 0.128,0.47847 0.028,0.22416 -0.029,0.17088 0.005,0.13672 0.05,0.19499 -0.017,0.0824 0.148,0.28648 0.071,0.24124 0.015,0.23521 -0.042,0.23019 -0.131,0.33473 -0.022,0.1347 0.029,0.12263 0.085,0.1337 0.141,0.14374 0.106,0.17289 0.072,0.20405 0.061,0.0925 0.076,-0.002 0.14,0.0312 0.112,0.11962 0.13,0.20003 0.043,0.2302 0.026,0.0995 z m -0.892,1.24845 -0.056,0.15178 -0.116,-0.002 -0.109,-0.13469 0.035,-0.10455 0.105,-0.0322 0.092,0.0392 0.049,0.0824 z m 0.218,0.27743 -0.099,0.0231 -0.062,-0.0512 0.015,-0.15279 0.035,-0.11057 0.098,-0.0171 0.068,0.0292 0.047,0.0502 0.001,0.0814 -0.029,0.0834 -0.074,0.0643 z" title="Malawi" id="MW" class=" " style="fill: rgb(0, 0, 0); stroke-width: 1.2px;"></path>
  
  
  
  
  
  
  
  <path d="m 227.715,174.40315 -0.397,0.0895 -0.276,-0.0322 -0.547,-0.25532 -0.146,-0.16988 -0.218,-0.47746 0.048,-0.16786 0.172,-0.29553 0.39,-0.1166 0.41,0.0432 0.184,0.0804 0.217,0.34579 0.28,0.35182 -0.047,0.41816 z" title="Reunion" id="RE" class=" " style="fill: rgb(0, 0, 0); stroke-width: 1.2px;"></path>
  <path d="m 156.746,116.14619 -0.092,0.0432 -0.019,0.13571 0.106,0.21612 0.348,0.4463 0.221,0.0814 0.144,0.1739 0.142,0.29251 0.042,0.3669 -0.059,0.44027 0.035,0.32669 0.128,0.21511 0.033,0.27844 -0.06,0.34176 -0.074,0.20507 -0.087,0.0683 -0.099,0.0252 -0.134,-0.0231 -0.163,0.0292 -0.177,0.0643 -0.112,0.009 -0.07,-0.0121 -0.13,-0.0553 -0.207,-0.17691 -0.386,0.0975 -0.105,-0.002 -0.141,0.0845 -0.116,0.10353 -0.069,0.007 -0.072,-0.0141 -0.332,-0.20807 -0.122,0.006 -0.05,0.58603 -0.055,0.32668 -0.069,0.14475 -0.238,0.13973 -0.239,0.0794 -0.131,-0.005 -0.527,0.0432 -0.206,0.001 -0.114,-0.0472 -0.148,-0.33272 -0.279,-0.14775 -0.268,-0.0694 -0.109,0.0191 -0.097,0.1739 -0.04,0.1558 -0.26,-0.10655 -0.078,-0.13168 -0.007,-0.22315 -0.095,-0.30558 0.053,-0.12967 0.102,-0.0844 0.216,-0.16082 0.328,-0.22416 0.07,-0.10555 0.046,-0.17792 -0.021,-0.41313 -0.031,-0.3488 0.039,-0.12364 0.15,-0.26939 0.2,-0.27644 0.235,-0.2915 0.141,-0.0282 0.185,-0.10957 0.196,-0.16385 0.11,-0.0613 0.092,-0.002 0.605,-0.14475 0.06,0.0452 0.098,0.28045 0.052,0.0412 0.084,0.0101 0.17,-0.0643 0.311,-0.22013 0.136,-0.13269 0.16,-0.18797 0.205,-0.21109 0.114,-0.18496 0.111,-0.10755 0.146,-0.0322 0.162,0.009 z" title="Rwanda" id="RW" class=" " style="fill: rgb(0, 0, 0); stroke-width: 1.2px;"></path>
  
  <path d="m 226.993,126.32075 0.008,0.26034 -0.135,-0.0875 -0.038,-0.16787 -0.18,-0.12565 -0.094,-0.11459 0.203,-0.14173 z" title="Seychelles" id="SC" class=" " style="fill: rgb(0, 0, 0); stroke-width: 1.2px;"></path>
  <path d="m 159.431,49.65669 -0.09,0.26939 0.525,0 0.921,0 0.921,0 0.921,0 0.921,-9.9e-4 0.92,0 0.921,0 0.921,0 0.921,0 0.921,0 0.92,0 0.922,-10e-4 0.92,0 0.921,0 0.921,0 0.921,0 0.921,-10e-4 0.031,0.68956 0.124,0.54984 0.434,0.78505 0.366,0.42219 0.132,0.2322 0.012,0.10755 -0.017,0.10052 -0.111,-0.1156 -0.188,-0.0784 -0.026,0.3669 0.043,0.26034 0.045,0.48953 0.154,0.52471 -0.111,0.4845 0.015,0.82024 0.194,0.98107 -0.039,0.62523 0.317,1.45552 0.308,0.80616 0.169,0.19802 0.191,0.10656 0.366,0.0683 0.539,0.40911 0.427,0.43223 0.152,0.22617 0.206,0.24728 0.142,-0.0442 0.087,-0.0663 0.139,0.20003 0.677,0.43123 0.1,0.20003 -0.244,0.19602 -0.281,0.33774 -0.071,0.1347 -0.033,0.0794 -0.033,0.10052 -0.074,0.0995 -0.161,0.13671 -0.064,0.0593 -0.038,0.0945 -0.097,0.0613 -0.106,0.003 -0.092,0.0422 -0.139,0.0643 -0.207,-0.0332 -0.211,0.0593 -0.077,0.0744 -0.168,0.0653 -0.167,0.0141 -0.059,0.0221 -0.158,0.10957 -0.194,0.15379 -0.227,0.0975 -0.08,0.0322 -0.104,0.10554 -0.161,0.52672 -0.118,0.13772 -0.198,0.0141 -0.257,0 -0.223,0.0452 -0.303,-0.0583 -0.147,0.007 -0.039,0.11258 -0.054,0.45133 0.007,0.19401 -0.12,0.22817 -0.134,0.28648 0.049,0.4825 0.023,0.47746 -0.246,0.71771 -0.035,0.16485 -0.249,0.56794 -0.128,0.2121 -0.318,1.05947 -0.124,0.32568 -0.266,0.34276 0.06,0.55789 0.064,0.59005 0.06,0.55687 0.09,0.8313 -0.226,0.77601 0.009,0.42319 -0.158,0.62321 -0.125,0.28849 -0.111,0.16988 -0.093,0.17691 -0.172,0.38801 -0.146,0.51164 -0.065,0.52371 -0.005,0.30457 -0.029,0.13872 -0.049,0.0885 -0.337,0.0573 -0.469,0.0623 -0.252,0.0683 -0.169,0.10655 -0.208,0.24828 -0.412,0.67951 -0.215,0.41615 -0.338,0.56894 -0.393,0.40208 -0.083,0.19601 -0.065,0.36388 -0.145,0.57597 -0.133,0.40811 0.024,0.32971 -0.124,0.56994 0.018,0.27743 -0.138,0.1548 -0.185,0.14676 -0.126,0.0372 -0.27,-0.16788 -0.206,-0.16987 -0.084,-0.0452 -0.179,0.10654 -0.215,0.15782 -0.246,0.3679 -0.191,0.37192 0.11,0.78909 -0.01,0.17188 -0.056,0.18797 -0.298,0.58703 -0.074,0.18596 -0.108,0.35182 -0.115,0.61417 -0.004,0.14776 0,0 -0.003,0 -0.522,-0.002 -0.009,-0.003 -0.008,-0.009 -0.008,-0.0131 -0.009,-0.0191 -0.02,-0.0804 -0.011,-0.12566 0.018,-0.21712 0.058,-0.25834 0.181,-0.36287 0.009,-0.0302 0.002,-0.0171 0,-0.0191 -0.017,-0.0653 -0.021,-0.0563 -0.01,-0.0844 0.031,-0.18897 0.003,-0.0583 -0.004,-0.0744 -0.014,-0.0482 -0.126,-0.31462 -0.042,-0.0502 -1.215,-1.00218 -0.222,-0.2724 -0.024,-0.0181 -0.03,-0.0141 -0.617,-0.22918 -0.03,-0.0231 0.004,-0.0332 0.019,-0.0433 0.074,-0.13267 0.01,-0.0342 0.011,-0.0532 -0.278,-2.11894 0.001,-0.0412 0.012,-0.0282 0.01,-0.0171 0.037,-0.0452 0.032,-0.0462 0.037,-0.0824 0.009,-0.0302 0.039,-0.37996 -0.003,-0.33171 0.162,-0.55386 0.018,-0.23622 -1.34,-0.0171 -0.008,0.0121 -0.001,0.0151 0.003,0.0161 0.002,0.0181 -10e-4,0.0372 -0.01,0.0683 -0.003,0.0371 0.001,0.0361 0.021,0.13369 0.035,0.0995 0.005,0.0332 0.002,0.0362 -0.004,0.0693 -1.865,0.008 0.738,0.83231 0.009,0.0171 0.013,0.0452 0.005,0.0342 0.014,0.29251 -0.039,0.46239 0.008,0.29753 0.043,0.193 0.2,0.37996 -0.013,0.0714 -0.046,0.0895 -1.323,1.12783 -0.037,0.0532 -0.184,0.47043 -0.175,0.27241 -0.077,0.0784 -0.307,0.38298 -1.207,1.2012 -0.198,0.0804 -0.601,0.0332 -0.318,0.009 -0.036,0.009 -0.054,0.0201 -0.033,0.0312 -0.039,0.0231 -0.039,-0.0121 -0.045,-0.0332 -0.742,-0.67248 -1.324,-0.84938 -0.127,0.0774 -0.749,0.3659 -0.154,0.0945 -0.086,0.0673 -0.004,0.40911 -0.131,0.20707 -0.236,0.22718 -0.648,0.14375 -0.337,0.12263 -0.345,0.18395 -0.056,0.0462 0,-0.001 -0.132,0.12766 -0.261,0.25632 -0.028,0.19903 0.042,0.17893 -2.233,-0.007 -0.147,-0.14274 -0.31,-0.62724 -0.014,-0.006 -0.228,0.0393 -2.036,-0.0734 -0.291,0.0653 -0.582,0.25934 -0.293,0.0433 -0.302,-0.11862 -1.071,-1.25045 -0.231,-0.14978 -0.085,-0.0804 -0.158,-0.21912 -0.229,-0.13069 -0.077,-0.0945 -0.025,-0.13369 0.007,-0.27543 -0.075,-0.17188 -0.169,-0.0392 -1.44,0.29049 -0.206,-0.0332 -0.302,0.0522 -0.104,0.0512 -0.122,0.16485 -0.025,0.17088 0.004,0.17289 -0.037,0.16988 -0.11,0.18998 -0.41,0.42419 -0.091,0.18496 0.019,0.46641 -0.027,0.23623 -0.062,0.10955 -0.178,0.17893 -0.065,0.10354 -0.03,0.14575 -0.01,0.30759 -0.032,0.14374 -0.224,0.36187 -0.053,0.12766 -0.013,0.26035 -0.036,0.0794 -0.651,0.20606 -0.243,0.13168 -0.149,0.20305 -0.036,0.0865 0,0 -0.279,-0.0724 -0.354,-0.0522 -0.681,-0.0643 -0.269,-0.0945 -0.129,-0.14173 0.041,-0.36187 -0.068,-0.0774 -0.108,-0.0643 -0.075,-0.15681 0.016,-0.18798 0.359,-0.41816 0.074,-0.22315 0.057,-0.77701 0.037,-0.27341 -0.027,-0.32066 -0.285,-0.59005 -0.248,-0.41012 -0.405,-0.60814 -0.158,-0.19903 -0.818,-0.83833 -0.095,-0.12464 -0.198,-0.35483 0.098,-0.31262 0.12,-0.4644 0.014,-0.21511 -0.056,-0.22214 -0.207,-0.16687 -0.184,-0.0201 -0.082,-0.0845 -0.16,-0.12264 -0.158,-0.0955 -0.14,-0.18296 -0.097,-0.25632 0.069,-0.91774 -0.047,-0.12263 -0.209,-0.0342 -0.049,-0.0663 0.008,-0.1759 -0.112,-0.52372 -0.126,-0.43424 0.067,-0.23924 -0.174,-0.32769 -0.334,-0.14072 -0.315,0.0432 -0.338,0.0653 -0.204,-0.0181 -0.139,-0.0613 -0.099,-0.11962 -0.05,-0.14274 0.046,-0.2131 0.186,-0.39202 0.231,-0.32167 0.471,-0.29451 0.125,-0.15581 0.072,-0.1739 0.012,-0.19903 -0.032,-0.21008 -0.053,-0.19199 -0.139,-0.25432 -0.127,-0.29955 -0.003,-0.20104 0.061,-0.14474 0.126,-0.1749 0.25,-0.19703 0.06,-0.0392 0.157,-0.10554 0.137,-0.0774 0.342,-0.20708 0.08,-0.0995 -0.029,-0.11961 -0.084,-0.0975 -0.138,-0.1367 -0.028,-0.16787 -0.04,-0.28648 -0.071,-0.18295 -0.051,-0.13368 0.097,-0.10053 0.145,-0.13971 0.181,-0.0855 0.279,-0.0724 0.11,-0.10052 0.032,-0.19099 -0.009,-0.18295 0.101,-0.13569 0.135,-0.29152 0.109,-0.13267 0.183,-0.15179 0.183,-0.18998 0.081,-0.22115 0.023,-0.21209 -0.1,-0.64534 0.211,-0.26939 0.27,-0.22315 0.388,0.0151 0.602,-0.0492 0.41,-0.0925 0.292,0.003 0.667,0.12061 0.055,-0.0292 0.015,-0.0242 0.036,-0.17088 -0.001,-0.43023 -0.001,-1.30272 -0.001,-1.30475 -0.001,-1.30775 -10e-4,-1.31178 -0.001,-1.3148 -0.001,-1.3178 -0.001,-1.32183 -0.001,-1.32485 0,-0.37192 0,-0.37091 0,-0.37193 0,-0.37291 0.692,9.9e-4 0.693,0 0.692,0 0.692,10e-4 0.009,-0.006 0.009,-0.005 0.008,-0.006 0.009,-0.004 0.001,-1.4897 0,-1.49472 0.001,-1.49975 0,-1.50477 1.072,0 1.073,10e-4 1.072,0 1.072,0 1.072,0 1.072,0 1.073,0 1.072,0.001 1.072,0 1.072,0 1.072,0 1.072,0 1.072,10e-4 1.072,0 1.073,0 1.072,0 0.327,0 0.144,-0.0222 0.275,-0.56391 0.117,-0.0423 0.179,0.0332 0.062,0.13269 z" title="Sudan" id="SD" class=" " style="fill: rgb(0, 0, 0); stroke-width: 1.2px;"></path>
  <path d="m 30.807,135.57456 -0.096,0.004 -0.028,-0.0231 -0.018,-0.0663 0.046,-0.10756 0.042,-0.0653 0.065,0.009 0.088,0.0754 0.074,0.0643 -0.04,0.0583 -0.133,0.0512 z m 24.339,23.01087 -0.253,0.0181 0.021,-0.13771 0.188,-0.14676 0.127,0.0191 0.008,0.16887 -0.091,0.0784 z" title="Saint Helena" id="SH" class=" " style="fill: rgb(0, 0, 0); stroke-width: 1.2px;"></path>
  
  
  <path d="m 187.682,117.90628 0.013,-0.2302 -0.044,-0.11459 -0.266,-0.34477 -0.497,-0.64132 -0.376,-0.48551 -0.385,-0.49556 -0.002,-0.39705 -0.004,-1.1811 -0.01,-2.3612 -0.008,-2.3622 -0.01,-2.36221 -0.005,-1.1821 -0.001,-0.4835 0.04,-0.0784 0.439,-0.43324 0.58,-0.57496 0.762,-1.09064 0.414,-0.59407 0.346,-0.49355 0.087,-0.15078 0.306,-0.29954 0.573,-0.17893 0.356,-0.0302 1.225,-0.22416 0.182,-0.0905 0.107,-0.10353 0.102,-0.23622 0.238,-0.33172 0.308,-0.22918 0.585,-0.29754 0.573,-0.2523 0.127,-0.0412 0.69,-0.15881 0.169,-0.0542 0.279,-0.0553 0.11,-0.002 0.958,0.0552 0.75,0.0442 0.771,0.0443 0.082,-0.0342 0.539,-0.58904 0.858,-0.93985 0.548,-0.5991 0.846,-0.92678 0.65,-0.66947 0.719,-0.73981 0.699,-0.67751 0.839,-0.81521 0.53,-0.51365 0.822,-0.79813 0.783,-0.76093 0.692,-0.67247 -0.955,0 -0.933,0 -0.919,0 -0.164,-0.0814 -0.772,-0.26136 -0.978,-0.3307 -1.214,-0.41012 -0.865,-0.2915 -0.922,-0.30659 -0.935,-0.3096 -0.734,-0.24325 -0.915,-0.30357 -0.795,-0.26437 -0.109,-0.0643 -0.441,-0.40309 -0.579,-0.52973 -0.111,-0.009 -0.276,-0.11057 -0.248,-0.28648 -0.256,-0.36589 -0.237,-0.45836 -0.103,-0.31162 -0.317,-0.13168 -0.152,-0.24627 -0.287,-0.36488 -0.199,-0.17692 -0.071,-0.15479 -0.092,-0.31966 -0.164,-0.3488 -0.157,-0.21511 -0.036,-0.0935 0.009,-0.0603 0.291,-0.47244 0.131,-0.16889 0.149,-0.16283 0.121,-0.16284 0.047,-0.11158 0.353,-0.55688 0.311,-0.49053 0.243,-0.38298 0.548,0.43826 0.533,0.88859 0.621,0.71772 0.858,0.66543 0.34,0.22517 0.301,0.1186 1.561,-0.0181 1.108,-0.60714 1.006,-0.44028 0.338,-0.0915 0.584,0.12062 0.644,0.0362 0.579,0.13369 0.294,-0.0342 1.146,-0.51165 0.72,-0.49858 0.491,-0.2121 0.193,-0.002 0.67,0.17993 0.861,-0.0784 1.178,-0.43023 0.375,-0.0875 0.286,-0.006 0.641,0.194 0.1,-0.0101 0.347,-0.0362 0.915,-0.20505 0.713,-0.3096 1.313,-0.22416 0.999,-0.56693 0.175,-0.27442 0.302,-0.34579 0.438,-0.11358 1.12,0.40609 0.179,0.0322 -0.065,0.24526 -0.039,0.2503 -0.229,0.43626 -0.147,0.4845 0.108,0.73982 0.052,1.19819 -0.027,0.17389 -0.074,0.17089 -0.031,0.1357 -0.121,0.0472 -0.053,0.0774 0.088,0.0302 0.35,-0.12967 -0.006,-0.14374 0.02,-0.0704 0.288,0.15983 0.206,0.0663 0.06,0.15078 -0.016,0.10253 -0.327,-0.0472 -0.167,-0.0794 -0.485,0.13068 -0.297,0.14072 -0.089,0.23521 -0.069,0.93684 -0.115,0.60714 -0.022,0.80315 -0.393,0.53074 -0.132,0.37393 -0.584,0.74987 -0.304,0.63931 -0.1,0.31261 -0.513,0.87653 -0.705,0.67147 -0.254,0.85744 -0.252,0.53777 -0.285,0.48651 -0.622,0.86648 -0.318,0.60111 -0.399,1.04338 -0.123,0.65941 -1.123,1.91389 -1.165,1.52387 -0.725,1.28162 -1.302,1.48568 -1.775,1.9169 -2.324,2.27375 -0.63,0.46339 -2.543,1.40224 -1.649,1.17407 -0.842,0.79912 -0.884,0.69561 -0.702,0.66241 -2.121,2.23355 -0.218,0.21008 -0.206,0.19802 -0.267,0.37896 -0.186,0.14978 -0.506,0.6393 -0.317,0.3307 -0.354,0.3277 -0.151,0.23119 -0.106,0.26638 -0.119,0.14777 -0.319,0.63528 -0.282,0.41615 z" title="Somalia" id="SO" class=" " style="fill: rgb(0, 0, 0); stroke-width: 1.2px;"></path>
  <path d="m 166.427,85.42849 -0.181,0.36287 -0.058,0.25834 -0.018,0.21712 0.011,0.12566 0.02,0.0804 0.009,0.0191 0.008,0.0131 0.008,0.009 0.009,0.003 0.522,0.002 0.003,0 0,0 -0.003,0.1156 0.021,0.57497 0.018,0.5026 0.03,0.82124 0.001,0.21411 -0.02,0.26637 -0.062,0.10555 -0.148,0.15078 -0.187,0.13771 -0.472,0.0352 -0.394,-0.005 -0.279,-0.0302 -0.382,-0.0121 -0.359,0.0292 -0.132,0.1166 -0.194,0.41113 -0.28,0.59608 -0.148,0.2523 -0.038,0.14675 0.044,0.0875 0.185,0.12666 0.408,0.17892 0.467,0.10454 0.348,0.0452 0.237,0.0492 0.183,0.0542 0.663,0.45635 0.212,0.2121 0.119,0.18797 0.028,0.20003 0.095,0.20204 0.383,0.39907 0.221,0.23019 0.575,0.29553 0.221,0.33473 0.213,0.16183 0.202,0.1749 0.108,0.26035 0.249,0.7549 0.168,0.39605 0.172,0.32367 0.068,0.52571 0.136,0.23522 0.14,0.28648 0.232,0.25933 0.247,0.19703 0.045,0.0532 -0.516,0.50762 -0.579,0.56894 -0.669,0.65941 -0.729,0.71569 -0.571,0.56693 -0.563,0.55889 -0.658,0.66042 -0.486,0.48752 -0.081,0.0683 -0.141,0.0905 -0.463,0.002 -0.478,-0.0573 -0.44,-0.29652 -0.447,0.23019 -0.283,0.0724 -0.169,0.0262 -0.399,0.0371 -0.559,0.12364 -0.253,0.1538 -0.137,0.12163 -0.113,0.22416 -0.057,0.0231 -0.103,-0.0262 -0.143,-0.0905 -0.299,-0.12966 -0.151,-0.28548 -0.138,-0.17189 -0.115,-0.0905 -0.474,0.28448 -0.23,0.0663 -0.188,-0.008 -0.344,-0.15982 -0.38,-0.13671 -0.196,0.001 -0.293,0.17089 -0.333,0.25532 -0.171,0.25231 -0.083,0.14976 -0.061,-0.11961 -0.056,-0.11158 -0.112,-0.14273 -0.161,-0.0563 -0.146,0.0282 -0.171,0.0282 -0.077,-0.0814 -0.016,-0.196 -0.047,-0.18094 -0.08,-0.13571 -0.246,-0.13569 -0.634,-0.27542 -0.487,-0.54984 -0.245,-0.25533 -0.179,-0.16485 -0.254,-0.43223 -0.289,-0.29754 -0.35,-0.13872 -0.231,0.0683 -0.238,0.31864 -0.449,0.29955 -0.206,0.0101 -0.264,-0.16183 -0.332,-0.1156 -0.595,-0.0502 -0.246,0.14173 -0.322,0.22918 -0.273,0.13671 -0.169,0.0161 -0.158,-0.0553 -0.179,-0.0292 -0.155,-0.005 -0.318,-0.20908 -0.165,-0.15379 -0.11,-0.14777 -0.18,-0.10052 -0.21,-0.0844 -0.15,-0.13168 -0.075,-0.16486 -0.119,-0.21108 -0.154,-0.18999 -0.486,-0.34176 -0.145,-0.20205 -0.102,-0.19701 -0.198,-0.21712 -0.213,-0.29051 -0.068,-0.42519 -0.009,-0.34277 -0.045,-0.15882 -0.09,-0.15882 -0.105,-0.1347 -0.169,-0.15078 -0.396,-0.22013 -0.41,-0.25532 -0.196,-0.14877 -0.373,-0.0542 -0.223,-0.14576 -0.187,-0.32066 -0.075,-0.25632 -0.189,-0.20003 -0.081,-0.14475 -0.045,-0.16686 0.15,-0.50762 -0.217,-0.17994 -0.323,-0.2332 -0.232,-0.25532 -0.141,-0.2342 -0.415,-0.3096 -0.904,-0.46339 -0.522,-0.29553 -0.285,-0.26538 -0.249,-0.26034 -0.025,-0.10656 0.161,-0.25933 0.024,-0.21411 -0.132,-0.23521 -0.542,-0.4443 -0.432,-0.48853 -0.327,-0.15278 -0.788,-0.1357 -0.226,-0.0542 -0.236,-0.0935 -0.233,-0.22014 -0.079,-0.26035 0.114,-0.41715 -0.073,-0.12766 -0.133,-0.0351 0,0 0.036,-0.0865 0.149,-0.20305 0.243,-0.13168 0.651,-0.20606 0.036,-0.0794 0.013,-0.26035 0.053,-0.12766 0.224,-0.36187 0.032,-0.14374 0.01,-0.30759 0.03,-0.14575 0.065,-0.10354 0.178,-0.17893 0.062,-0.10956 0.027,-0.23622 -0.019,-0.46641 0.091,-0.18496 0.41,-0.42419 0.11,-0.18998 0.037,-0.16988 -0.004,-0.17289 0.025,-0.17088 0.122,-0.16485 0.104,-0.0512 0.302,-0.0522 0.206,0.0332 1.44,-0.29049 0.169,0.0393 0.075,0.17188 -0.007,0.27543 0.025,0.13369 0.077,0.0945 0.229,0.13068 0.158,0.21913 0.085,0.0804 0.231,0.14977 1.071,1.25046 0.302,0.11862 0.293,-0.0433 0.582,-0.25934 0.291,-0.0653 2.036,0.0734 0.228,-0.0392 0.014,0.006 0.31,0.62724 0.147,0.14274 2.233,0.007 -0.042,-0.17893 0.028,-0.19903 0.261,-0.25632 0.132,-0.12766 0,0.001 0.056,-0.0462 0.345,-0.18395 0.337,-0.12264 0.648,-0.14374 0.236,-0.22718 0.131,-0.20707 0.004,-0.40911 0.086,-0.0673 0.154,-0.0945 0.749,-0.3659 0.127,-0.0774 1.324,0.84938 0.742,0.67248 0.045,0.0331 0.039,0.0121 0.039,-0.0231 0.033,-0.0312 0.054,-0.0201 0.036,-0.009 0.318,-0.009 0.601,-0.0332 0.198,-0.0804 1.207,-1.2012 0.307,-0.38298 0.077,-0.0784 0.175,-0.27241 0.184,-0.47043 0.037,-0.0532 1.323,-1.12783 0.046,-0.0895 0.013,-0.0714 -0.2,-0.37996 -0.043,-0.193 -0.008,-0.29753 0.039,-0.46239 -0.014,-0.29251 -0.005,-0.0342 -0.013,-0.0453 -0.009,-0.0171 -0.738,-0.83231 1.865,-0.008 0.004,-0.0693 -0.002,-0.0362 -0.005,-0.0332 -0.035,-0.0995 -0.021,-0.13369 -0.001,-0.0361 0.003,-0.0372 0.01,-0.0683 10e-4,-0.0372 -0.002,-0.0181 -0.003,-0.0161 0.001,-0.0151 0.008,-0.0121 1.34,0.0171 -0.018,0.23622 -0.162,0.55386 0.003,0.33171 -0.039,0.37996 -0.009,0.0302 -0.037,0.0824 -0.032,0.0462 -0.037,0.0452 -0.01,0.0171 -0.012,0.0282 -0.001,0.0412 0.278,2.11894 -0.011,0.0532 -0.01,0.0342 -0.074,0.13267 -0.019,0.0433 -0.004,0.0332 0.03,0.0231 0.617,0.22918 0.03,0.0141 0.024,0.0181 0.222,0.2724 1.215,1.00218 0.042,0.0502 0.126,0.31462 0.014,0.0482 0.004,0.0744 -0.003,0.0583 -0.031,0.18897 0.01,0.0844 0.021,0.0563 0.017,0.0653 0,0.0191 -0.002,0.0171 z" title="South Sudan" id="SS" class=" " style="fill: rgb(0, 0, 0); stroke-width: 1.2px;"></path>
  
  
  
  <path d="m 138.421,57.4218 0.001,1.32485 0.001,1.32183 0.001,1.3178 0.001,1.3148 10e-4,1.31178 0.001,1.30775 0.001,1.30475 0.001,1.30272 0.001,0.43023 -0.036,0.17088 -0.015,0.0242 -0.055,0.0292 -0.667,-0.12062 -0.292,-0.003 -0.41,0.0925 -0.602,0.0492 -0.388,-0.0151 -0.27,0.22315 -0.211,0.26939 0.1,0.64534 -0.023,0.21209 -0.081,0.22115 -0.183,0.18998 -0.183,0.15178 -0.109,0.13268 -0.135,0.29152 -0.101,0.13569 0.009,0.18295 -0.032,0.19099 -0.11,0.10052 -0.279,0.0724 -0.181,0.0855 -0.145,0.13972 -0.097,0.10052 0.051,0.13369 0.071,0.18295 0.04,0.28648 0.028,0.16787 0.138,0.1367 0.084,0.0975 0.029,0.11961 -0.08,0.0995 -0.342,0.20708 -0.137,0.0774 -0.157,0.10554 -0.06,0.0392 -0.25,0.19702 -0.126,0.17491 -0.061,0.14474 0.003,0.20104 0.127,0.29955 0.139,0.25432 0.053,0.19199 0.032,0.21008 -0.012,0.19903 -0.072,0.1739 -0.125,0.1558 -0.471,0.29452 -0.231,0.32167 -0.186,0.39202 -0.046,0.2131 0.05,0.14274 0.099,0.11962 0.139,0.0613 0.204,0.0181 0.338,-0.0653 0.315,-0.0432 0.334,0.14072 0.174,0.32769 -0.067,0.23924 0.126,0.43424 0.112,0.52371 -0.008,0.17591 0.049,0.0663 0.209,0.0342 0.047,0.12263 -0.069,0.91774 0.097,0.25632 0.14,0.18296 0.158,0.0955 0.16,0.12264 0.082,0.0845 0.184,0.0201 0.207,0.16686 0.056,0.22215 -0.014,0.21511 -0.12,0.4644 -0.098,0.31262 -0.12,-0.0211 -0.244,-0.0774 -0.298,-0.0663 -0.366,-0.0532 -0.348,0.12765 -0.376,0.16385 -0.118,0.12163 -0.105,0.0724 -0.166,-0.0121 -0.152,0.0211 -0.082,0.11661 -0.138,0.12966 -0.542,0.26739 -0.114,0.0975 -0.068,0.0965 0,0.10554 0.055,0.21713 -0.001,0.27039 -0.121,0.21914 -0.14,0.14676 -0.161,0.0563 -0.133,0.0312 -0.088,0.0905 -0.283,0.49657 -0.122,0.0915 -0.249,-0.0151 -0.714,0.74284 -0.071,0.21913 -0.261,0.3106 -0.33,0.34479 -0.295,0.16686 -0.024,0.0643 -0.079,0.0653 -0.182,0.0744 -0.63,0.42018 -0.757,-0.0171 -0.334,0.16485 -0.325,0.0724 -0.476,0.0814 -0.142,-0.008 -0.61,0.0342 -0.715,-0.0121 -0.274,0.0593 -0.257,0.15882 -0.191,0.13973 -0.027,0.0472 0.028,0.0583 -0.007,0.0462 0.5,0.34277 0.125,0.16786 -0.126,0.16285 -0.06,0.0241 -0.007,0.0101 -0.082,0.12866 -0.293,0.38599 -0.446,0.45636 -0.228,0.13067 -0.091,0.0855 -0.119,0.30257 -0.076,0.0422 -0.307,0.0392 -0.606,0.0331 -0.839,0.0985 -0.503,0.0331 -0.313,-0.0282 -0.44,0.20908 -0.157,0.0532 -0.096,0.0181 -0.436,0.20204 -0.362,0.31462 -0.129,0.0593 -0.51,0.13369 -0.203,0.21611 -0.093,0.0181 -0.327,-0.28547 -0.223,-0.25834 -0.109,-0.26235 -0.013,-0.0834 -0.062,0.0151 -0.179,0.11661 -0.155,0.13168 -0.071,0.25129 -0.527,0.16888 -0.451,0.14575 -0.205,0.18294 -0.316,0.0905 -0.403,-0.0371 -0.314,-0.0744 -0.307,-0.0252 0.147,-0.22817 0.057,-0.16989 0.014,-0.20807 -0.022,-0.14072 -0.184,-0.0703 -0.116,-0.11058 -0.264,-0.65639 -0.271,-0.67549 -0.382,-0.66543 -0.416,-0.4252 -0.301,-0.25935 -0.096,-0.0332 -0.155,-0.0814 -0.108,-0.0754 -0.552,-0.45234 -0.572,-0.50661 -0.147,-0.2312 -0.286,-0.34478 -0.32,-0.35584 -0.166,-0.16184 -0.077,-0.29251 0.22,-0.26436 0.236,-0.33373 0.29,-0.22214 0.376,-0.0151 0.619,0.0915 0.668,0.0322 0.662,-0.0693 0.171,-0.0482 0.17,0.004 0.356,0.0774 0.62,-0.0171 0.32,-0.13469 -0.345,-0.23018 -0.371,-0.36489 -0.347,-0.40007 -0.211,-0.36288 -0.193,-0.4674 -0.178,-0.578 -0.109,-0.74987 0.016,-0.42519 0.056,-0.30257 0.186,-0.49455 -0.123,-0.2895 0.027,-0.2342 -0.018,-0.3468 -0.06,-0.17692 -0.241,-0.57597 -0.049,-0.0633 -0.213,-0.39907 -0.094,-0.66744 -0.241,-0.44128 -0.387,-0.21311 -0.22,-0.26034 -0.081,-0.45837 -0.153,-0.12062 -0.608,-0.15983 -0.508,-0.004 -0.369,-0.51767 -0.474,-0.66644 -0.441,-0.6192 -0.282,-1.24242 -0.162,-0.71168 0.183,-0.21611 0.362,-0.50763 0.462,-0.97303 1.041,-1.50678 0.533,-0.77299 1.063,-1.15597 1.306,-1.42336 0.736,-0.80415 0.119,-1.46759 0.126,-1.55603 0.095,-1.1791 0.118,-1.40224 0.1,-1.17406 0.072,-0.85743 0.102,-1.21729 0.087,-0.23422 0.513,-0.95794 0.04,-0.12866 -0.095,-0.16084 -0.732,-0.81621 -0.228,-0.18195 -0.132,-0.42519 0.188,-0.23823 -0.88,-1.3751 -0.218,-0.16888 -0.096,-0.16787 -0.011,-0.24928 -0.016,-0.95493 -0.234,-1.50277 -0.308,-1.75707 1.034,-0.5016 0.785,-0.38197 1.002,-0.48752 0.928,0.49958 1.345,0.72173 1.345,0.71972 1.344,0.71972 1.345,0.71871 1.344,0.71671 1.345,0.71468 1.344,0.7147 1.345,0.71368 1.344,0.71168 1.345,0.71067 1.344,0.70967 1.345,0.70866 1.344,0.70766 1.345,0.70664 1.344,0.70464 z" title="Chad" id="TD" class=" " style="fill: rgb(0, 0, 0); stroke-width: 1.2px;"></path>
  
  
  <path d="m 182.57,135.5826 -0.152,0.0371 -0.059,-0.0362 -0.093,-0.11861 0.162,-0.10052 0.157,-0.19501 0.365,-0.28648 0.125,-0.18898 0.045,-0.0402 -0.026,0.22315 -0.206,0.48752 -0.176,0.0322 -0.142,0.18596 z m -0.603,-5.09131 0.215,0.60011 -0.027,0.11257 -0.152,0.0683 -0.079,0.006 -0.094,-0.0965 -0.066,-0.20204 -0.115,0.0482 -0.196,-0.24226 -0.194,-0.0121 -0.172,-0.2885 0.067,-0.2513 -0.039,-0.42921 0.209,-0.21914 0.118,-0.36991 0.136,0.2523 0.031,0.39404 0.183,0.46239 0.153,0.14274 0.022,0.0242 z m 1.034,-3.57145 0.017,0.14173 -0.043,0.1337 0.009,0.42519 -0.017,0.28246 -0.16,0.39102 -0.131,0.13972 -0.117,-0.0412 -0.096,-0.0643 -0.075,-0.10756 0.152,-0.7167 -0.078,-0.52471 0.301,0.0502 0.238,-0.10957 z m -25.374,-10.96464 0.059,0.008 0.294,0 0.499,0 0.499,0 0.499,0 0.499,0 0.499,0 0.499,0 0.499,0 0.499,0 0.499,0 0.499,0 0.499,0 0.499,0 0.499,0 0.499,0 0.499,0 0.499,0 0.307,0 0.214,0 0.202,0.10555 0.225,0.12565 0.599,0.33372 0.598,0.33372 0.598,0.33372 0.598,0.33373 0.598,0.33372 0.599,0.33373 0.598,0.33372 0.599,0.33373 0.598,0.33372 0.598,0.33373 0.598,0.33372 0.598,0.33372 0.599,0.33372 0.598,0.33373 0.598,0.33372 0.598,0.33373 0.286,0.15982 0.043,0.0694 0.049,0.30457 0.031,0.18999 -0.017,0.16787 -0.159,0.28446 -0.046,0.14877 -0.001,0.10354 0.039,0.0412 0.135,0.0151 0.115,0.0673 0.042,0.0532 0.088,0.21411 0.111,0.10755 0.253,0.18195 0.431,0.3106 0.431,0.3106 0.431,0.3106 0.431,0.31061 0.431,0.31061 0.431,0.3106 0.431,0.31061 0.431,0.3106 0.209,0.15178 0.089,0.0423 -0.056,0.23621 -0.221,0.57397 -0.013,0.23923 -0.086,0.28146 -0.083,0.18596 -0.225,0.80817 -0.188,0.30256 -0.257,0.70867 -0.041,0.54281 0.142,0.37996 0.052,0.35584 0.302,0.3498 0.241,0.12464 0.163,0.15983 0.289,0.36489 0.166,0.36588 0.519,0.17993 0.207,0.41113 -0.075,0.28246 -0.241,0.23421 -0.225,0.37895 -0.181,0.49858 -0.004,0.76294 0.122,-0.1156 0.275,0.18697 0.035,0.56191 -0.283,0.65437 -0.087,0.30659 -0.014,0.26336 0.206,0.78505 0.312,0.39907 -0.029,0.12263 -0.081,0.10454 0.534,0.70766 -0.044,0.61618 0.2,0.48048 0.087,0.41615 0.132,0.31965 0.025,0.22014 -0.165,0.24426 0.389,0.0613 0.229,0.20003 0.108,0.19099 0.281,-0.008 0.152,0.13067 0.22,0.10856 0.485,0.32166 0.131,0.16184 0.047,0.0935 0.031,0.0613 -0.326,0.24929 -0.508,0.388 -0.499,0.37997 -0.481,0.26134 -0.344,0.12164 -0.368,0.0673 -0.349,0.15983 -0.33,0.2513 -0.423,0.12665 -0.515,10e-4 -0.541,0.17592 -0.537,0.33272 -0.313,0.194 -0.496,-0.29252 -0.389,-0.0925 -0.447,0.0101 -0.272,0.0362 -0.098,0.0633 -0.085,0.17893 -0.072,0.29351 -0.293,0.28247 -0.514,0.27039 -0.474,0.10153 -0.434,-0.0683 -0.293,-0.11258 -0.153,-0.15681 -0.225,-0.0724 -0.298,0.0131 -0.286,0.11158 -0.273,0.21109 -0.435,0.0915 -0.598,-0.0282 -0.321,-0.10254 -0.044,-0.1759 -0.262,-0.20606 -0.479,-0.23623 -0.354,-0.005 -0.227,0.22717 -0.207,0.14274 -0.187,0.0583 -0.168,0.007 -0.149,-0.0433 -0.093,-0.0181 -0.661,-0.0242 -0.626,0.009 -0.02,-0.0985 -0.043,-0.23019 -0.13,-0.20003 -0.112,-0.11962 -0.14,-0.0312 -0.076,0.002 -0.061,-0.0925 -0.072,-0.20406 -0.106,-0.17289 -0.141,-0.14375 -0.085,-0.13369 -0.029,-0.12263 0.022,-0.13469 0.131,-0.33473 0.042,-0.23019 -0.015,-0.23522 -0.071,-0.24125 -0.148,-0.28648 0.017,-0.0824 -0.05,-0.19501 -0.005,-0.1367 0.029,-0.17088 -0.028,-0.22416 -0.128,-0.47848 0,-0.12263 -0.135,-0.2312 -0.416,-0.54682 -0.02,-0.0714 -0.652,-0.55085 -0.261,-0.12062 -0.094,0.10353 -0.035,0.0955 0.027,0.17691 -0.016,0.0875 -0.027,0.0403 -0.155,-0.006 -0.097,-0.0201 -0.247,-0.14777 -0.192,-0.0362 -0.478,0.0262 -0.167,0.0352 -0.131,-0.0332 -0.253,-0.2523 -0.296,-0.0532 -0.266,-0.0131 -0.439,-0.28648 -0.103,0.0131 -0.049,0.0221 -0.159,-0.0754 -0.299,-0.16686 -0.416,-0.14676 -0.34,-0.16385 -0.152,-0.15982 -0.319,-0.0613 -0.276,-0.0262 -0.256,-0.14877 -0.265,-0.0171 -0.26,-0.0382 -0.058,-0.0975 -0.009,-0.21914 -0.091,-0.0573 -0.191,-0.0563 -0.206,0.003 -0.125,0.0312 -0.074,-0.0161 -0.171,-0.12868 -0.159,-0.16384 -0.06,-0.26135 -0.24,-0.16787 -0.277,-0.13268 -0.77,0.0141 -0.121,-0.0403 -0.183,-0.13268 -0.214,-0.21913 -0.172,-0.2503 -0.151,-0.33875 -0.072,-0.20506 -0.085,-0.2523 -0.188,-0.37795 -0.266,-0.53476 -0.206,-0.43827 -0.221,-0.47043 -0.09,-0.34478 -0.172,-0.38097 -0.282,-0.46842 -0.143,-0.18295 -0.156,-0.16384 -0.405,-0.31563 -0.459,-0.31362 -0.249,-0.21109 -0.334,-0.62825 -0.14,-0.22717 -0.097,-0.39906 -0.073,-0.41415 0.03,-0.16786 0.296,-0.53376 0.03,-0.14977 -0.036,-0.20205 -0.146,-0.42519 -0.109,-0.27744 -0.076,-0.23722 -0.158,-0.39504 -0.217,-0.54381 -0.055,-0.23722 0.007,-0.17792 0.117,-0.46943 0.103,-0.48349 -0.003,-0.13269 0.883,0.0181 0.145,-0.10556 0.499,-0.31161 0.561,-0.62422 0.112,-0.25934 0.229,-0.40007 0.224,-0.19802 0.086,-0.13771 0.059,-0.21612 0.07,-0.18294 0.294,-0.2704 0.286,-0.20807 -0.021,-0.0834 -0.038,-0.0623 0.042,-0.0532 0.156,-0.10656 0.304,-0.0975 0.06,-0.20807 -0.001,-0.23623 -0.049,-0.13168 0.009,-0.15178 -0.047,-0.0844 -0.199,-0.0211 -0.295,-0.11761 -0.25,-0.0492 -0.167,-0.0683 -0.062,-0.0522 -0.027,-0.14174 0.049,-0.1548 0.025,-0.0442 0.064,-0.16587 -0.109,-0.0995 -0.028,-0.0482 0.05,-0.0794 0.257,-0.52471 0.056,-0.0734 0.112,-0.009 0.177,-0.0643 0.164,-0.0292 0.134,0.0222 0.099,-0.0252 0.087,-0.0673 0.074,-0.20507 0.061,-0.34175 -0.034,-0.27844 -0.128,-0.21512 -0.035,-0.32769 0.059,-0.44027 -0.042,-0.36589 -0.142,-0.29251 -0.145,-0.1739 -0.221,-0.0824 -0.348,-0.44631 -0.106,-0.21611 0.019,-0.13469 0.092,-0.0433 0.028,-0.0131 0.222,0.0201 0.208,-0.0512 0.194,-0.12263 0.188,-0.0352 0.038,0.006 z" title="Tanzania" id="TZ" class=" " style="fill: rgb(0, 0, 0); stroke-width: 1.2px;"></path>
  <path d="m 166.27,115.96324 -0.307,0 -0.499,0 -0.499,0 -0.499,0 -0.499,0 -0.498,0 -0.499,0 -0.499,0 -0.499,0 -0.499,0 -0.499,0 -0.499,0 -0.499,0 -0.498,0 -0.499,0 -0.499,0 -0.499,0 -0.295,0 -0.059,-0.008 -0.041,-0.0121 -0.188,0.0352 -0.195,0.12364 -0.207,0.0502 -0.222,-0.0191 -0.028,0.0131 -0.112,-0.003 -0.162,-0.009 -0.146,0.0322 -0.111,0.10755 -0.114,0.18496 -0.205,0.21109 -0.16,0.18797 -0.136,0.13269 -0.311,0.22013 -0.17,0.0643 -0.084,-0.0101 -0.052,-0.0412 -0.098,-0.28045 -0.06,-0.0452 -0.605,0.14475 -0.092,0.002 0.008,-0.0875 -0.045,-0.6594 -0.005,-0.40409 0.079,-0.2523 0.046,-0.29151 0.005,-0.25733 0.111,-0.43726 -0.041,-0.26236 0.143,-0.91974 0.038,-0.14978 0.056,-0.44429 0.089,-0.13671 0.08,-0.0532 0.103,-0.2724 0.199,-0.43625 0.137,-0.22416 -0.03,-0.48953 0.023,-0.33373 0.031,-0.0734 0.293,-0.12465 0.38,-0.30759 0.161,-0.36288 0.227,-0.23119 0.44,-0.14977 0.001,-0.001 1.304,-1.24343 0.606,-0.67046 0.264,-0.34378 0.009,-0.12364 0.051,-0.16184 -0.106,-0.12665 -0.126,-0.11459 -0.043,-0.10655 -0.108,-0.0522 -0.156,0.002 -0.103,-0.0774 -0.117,-0.15078 -0.117,-0.0945 -0.37,0.008 -0.285,-0.1548 0.004,-0.21008 0.111,-0.41414 0.216,-0.47445 0.012,-0.13068 -0.031,-0.11158 -0.052,-0.0955 -0.097,-0.0945 -0.092,-0.11359 0.071,-0.34176 0.136,-0.33373 0.112,-0.16787 0.109,-0.18696 -0.031,-0.1538 -0.159,-0.0764 0.083,-0.14976 0.171,-0.25231 0.333,-0.25532 0.293,-0.17089 0.196,-0.001 0.38,0.13671 0.344,0.15982 0.188,0.008 0.23,-0.0663 0.474,-0.28448 0.115,0.0905 0.138,0.17189 0.151,0.28548 0.299,0.12966 0.143,0.0905 0.103,0.0262 0.057,-0.0231 0.113,-0.22416 0.137,-0.12163 0.253,-0.1538 0.559,-0.12364 0.399,-0.0371 0.169,-0.0262 0.283,-0.0724 0.447,-0.23019 0.44,0.29652 0.478,0.0573 0.463,-0.002 0.141,-0.0905 0.081,-0.0683 0.486,-0.48752 0.658,-0.66042 0.438,0.92981 0.151,0.0552 -0.022,0.0804 -0.037,0.0784 0.287,0.22416 0.353,0.11761 0.126,0.11459 0.011,0.12364 -0.119,0.54381 0.022,0.1548 0.114,0.54482 0.21,0.12162 0.186,0.54884 0.377,0.23219 0.054,0.0663 0.087,0.26537 0.115,0.29151 0.09,0.0673 0.055,0.0171 0.111,0.30759 -0.064,0.1739 0.087,0.52673 0.141,0.47042 0.038,0.5619 0.001,0.24728 -0.005,0.15179 -0.031,0.21309 -0.067,0.12364 -0.12,0.12063 -0.134,0.18897 -0.116,0.20305 -0.073,0.0995 0.057,0.30357 -0.015,0.0794 -0.03,0.0382 -0.171,0.0462 -0.218,0.0814 -0.132,0.0804 -0.188,0.1548 -0.15,0.16585 -0.199,0.48953 -0.332,0.38198 -0.056,0.12565 -0.313,0.22717 -0.138,0.28045 -0.088,0.34378 -0.121,0.24627 -0.265,0.33875 -0.06,0.53476 0.008,1.06651 -0.069,1.21628 z" title="Uganda" id="UG" class=" " style="fill: rgb(0, 0, 0); stroke-width: 1.2px;"></path>
  <path d="m 220.105,65.82321 -1.415,0.52069 -0.373,0.23119 -0.339,0.28547 -0.254,0.35685 -0.178,0.62623 0.135,0.57196 -0.013,0.30659 -0.365,0.20305 -0.341,0.14575 -0.379,0.22315 -0.23,0.0553 -0.188,0.17691 -0.219,0.12364 -0.789,0.32166 -0.862,0.24828 -1.37,0.29754 -0.529,0.32266 -0.481,0.22115 -0.731,0.0663 -1.004,0.30659 -0.558,0.24526 -0.693,0.39906 -0.153,0.12565 -0.122,0.29352 -0.213,0.25331 -0.417,0.41514 -0.313,0.2131 -0.209,0.0111 -0.406,0.1166 -0.481,0.0242 -0.808,-0.14575 -0.208,0.10151 -0.171,0.16185 -0.623,0.28447 -0.633,0.56793 -0.463,0.15078 -0.749,0.17792 -0.524,0.23622 -0.352,0.0945 -0.453,0.0492 -0.839,-0.0242 -0.795,0.0855 -0.737,0.15982 -0.346,0.30256 -0.395,0.47948 -0.645,0.19803 -0.152,0.17189 -0.199,0.35282 -0.417,0.0915 -0.378,0.0593 -0.386,-0.1538 -0.728,0.4262 -0.275,0.0704 -0.418,0.0171 -0.297,0.0895 -0.213,-0.0252 -0.265,-0.16687 -0.564,-0.20204 -0.412,0.13168 -0.035,-0.40308 -0.683,-1.23236 0.142,-1.07456 0,-0.15178 -0.136,-0.48049 -0.407,-0.43926 0.012,-0.55688 -0.136,-0.39806 -0.108,-0.41012 0.035,-0.10856 0.006,-0.0985 -0.208,-0.63227 -0.069,-0.12766 -0.026,-0.13269 0.068,-0.10152 -0.002,-0.11761 -0.11,-0.194 -0.117,-0.36992 -0.555,-0.29049 0.113,-0.27241 0.108,0.0955 0.146,0.0814 0.03,-0.1759 0.002,-0.13168 -0.232,-0.82326 0.344,-1.09968 -0.113,-0.99213 0.525,-0.40107 0.132,-0.12062 0.076,-0.10555 0.124,-0.22717 0.169,-0.0734 0.06,-0.23924 -0.005,-0.11961 -0.109,-0.10253 -0.082,-0.27844 0.027,-0.35383 0.027,-0.14776 0.057,-0.2704 0.184,-0.10052 0.043,-0.0804 -0.142,-0.17089 0.013,-0.10253 0.312,-0.28648 0.123,-0.0855 0.202,-0.0885 0.158,9.9e-4 0.182,0.0502 0.163,0.0804 0.158,0.14575 0.167,0.16585 0.256,0.0633 0.174,-0.0161 0.142,0.0734 0.12,-0.0403 0.136,-0.0854 0.218,0.005 0.196,-0.0965 0.558,-0.0462 0.538,0.0292 0.562,-0.0804 0.561,0.006 0.566,0.006 0.125,0.0121 0.123,0.0502 0.477,0.25331 0.362,0.0522 0.727,0.0694 0.775,0.0744 0.672,0.0633 0.57,-0.0603 0.473,-0.0492 0.128,0.008 0.143,0.15681 0.285,0.39102 0.269,0.3679 0.471,0.0201 0.302,-0.13872 0.332,-0.19501 0.203,-0.15078 0.235,-0.59909 0.152,-0.38801 0.349,-0.43726 0.292,-0.36588 0.386,-0.48552 0.214,-0.26838 0.422,-0.53074 0.403,-0.20707 0.778,-0.39906 0.763,-0.39303 0.497,-0.25632 0.423,-0.11661 0.709,-0.10052 0.833,-0.11861 0.833,-0.11862 0.889,-0.12564 0.99,-0.14073 0.679,-0.0965 0.865,-0.12364 0.72,-0.10253 0.64,-0.0905 0.659,-0.0935 0.124,0.29553 0.124,0.29553 0.125,0.29552 0.124,0.29553 0.124,0.29552 0.124,0.29553 0.124,0.29452 0.125,0.29452 0.124,0.29453 0.124,0.29452 0.124,0.29452 0.125,0.29452 0.124,0.29352 0.124,0.29351 0.124,0.29352 0.124,0.29351 0.122,0.28648 0.2,0.0955 0.119,0.2714 0.17,0.387 0.171,0.38599 0.17,0.386 0.168,0.387 z m -29.455,3.92327 -0.088,0.0643 -0.027,-0.11258 0.058,-0.25331 0.092,-0.0734 0.062,0.18797 -0.04,0.10353 -0.057,0.0834 z m 0.553,3.85893 -0.037,0.0613 -0.051,-0.0131 -0.174,-0.15379 0.191,-0.17189 0.102,0.15982 -0.031,0.11761 z m -0.089,0.77199 -0.186,0.0885 0.127,-0.22918 0.13,-0.0472 0.036,0.009 -0.107,0.17892 z m 30.892,3.07288 0.174,0.0342 0.263,-0.0995 0.754,-0.0131 0.909,0.31965 -0.172,0.0834 -0.102,0.11559 -0.399,0.10554 -0.398,0.24627 -1.152,0.11963 -0.338,-0.0663 -0.278,-0.23823 -0.515,-0.3096 0.203,-0.19802 0.044,-0.0905 0.076,-0.0865 0.291,-0.14978 0.291,0.0242 0.349,0.20305 z" title="Yemen" id="YE" class=" " style="fill: rgb(0, 0, 0); stroke-width: 1.2px;"></path>
  <path d="m 197.919,149.83724 -0.177,0.0242 -0.083,-0.0764 -0.051,-0.18092 0.052,-0.17391 0.015,-0.14073 -0.143,-0.24425 0.14,-0.13872 0.119,0.16184 0.068,0.0111 0.18,0.11258 -0.053,0.20707 0.012,0.0683 -0.082,0.20708 z" title="Mayotte" id="YT" class=" " style="fill: rgb(0, 0, 0); stroke-width: 1.2px;"></path>
  
  <path d="m 163.51,139.63754 0.01,0.0754 0.077,0.14274 0.081,0.10253 0.007,0.15078 0.038,0.14073 0.118,0.0342 0.097,0.009 0.09,-0.10052 0.122,0.002 0.134,0.0643 0.048,0.16183 0.105,0.21712 0.169,0.14877 0.114,0.14374 -0.039,0.26135 -0.072,0.23823 0.23,0.23622 0.299,0.22416 0.081,0.0995 0.024,0.33373 0.046,0.11258 0.203,0.27744 0.099,0.18395 -0.007,0.10654 -0.545,0.54984 -0.173,0.0533 -0.164,0.0312 -0.146,0.11259 -0.088,0.1176 0.032,0.0623 0.058,0.18797 0.127,0.29754 0.115,0.20808 -0.096,0.26034 -0.216,0.44228 -0.1,0.0393 -0.018,0.33473 0.066,0.12263 0.108,0.0965 0.044,0.22717 0.003,0.31363 -0.012,0.2523 -0.136,0.64231 0.246,0.56191 0.084,0.0613 0.341,0.004 0.058,0.0472 -0.081,0.15982 -0.148,0.16486 -0.091,0.0834 -0.434,0.192 -0.623,0.21208 -0.13,0.20306 -0.083,0.29653 0.07,0.17389 0.082,0.0995 -0.026,0.25833 -0.055,0.27342 0.019,0.21511 -0.028,0.18998 -0.082,0.0935 -0.109,0.28648 -0.134,0.28849 -0.106,0.13168 -0.156,0.13771 -0.247,0.11459 0.004,0.0583 0.28,0.13269 0.072,0.0925 0.026,0.0633 -0.06,0.0603 -0.057,0.0854 0.129,0.0885 0.158,0.0744 0.149,0.19199 0.133,0.26839 0.038,0.0945 0.031,0.0371 0.048,0.004 0.093,-0.0403 0.171,-0.14675 0.125,-0.0522 0.151,0.20908 -0.603,0.20707 -0.316,0.10856 -0.901,0.3096 -0.787,0.27039 -0.205,0.0512 -0.408,0.13168 -0.203,0.0814 -0.711,0.23622 -0.297,0.11761 -0.239,0.1176 -0.587,0.1749 -0.555,0.16486 -0.606,0.17088 -0.678,0.18998 -0.381,0.13772 -0.257,0.1186 -0.601,0.24125 -0.028,0.0583 0.008,0.16385 0.077,0.33774 0.15,0.30658 0.126,0.17691 0.082,0.45435 0.046,0.39906 -0.408,0.001 -0.718,0.002 -0.745,0.001 -0.68,0.15278 -0.559,0.2322 -0.667,0.36288 -0.217,0.14274 -0.168,0.10957 -0.106,0.14172 -0.052,0.3096 0,0.47847 -0.068,0.34378 -0.202,0.31663 0,-10e-4 -1.013,0.38298 -0.662,0.31261 -0.65,0.37093 -0.493,0.48147 -0.336,0.59207 -0.558,0.73379 -0.568,0.63629 -0.603,0.67749 -0.676,0.24527 -0.568,-0.0552 -0.685,-0.27442 -0.544,-0.0522 -0.403,0.17088 -0.372,-0.0532 -0.342,-0.27543 -0.286,-0.10052 -0.232,0.0744 -0.296,-0.0131 -0.541,-0.15079 -0.468,-0.46942 -0.253,-0.193 -0.195,-0.0744 -0.56,-0.0754 -1.285,-0.10756 -0.134,0.0242 -0.534,0.0925 -0.667,0.11559 -0.574,0.1156 -0.601,0.12062 -0.559,-0.48853 -0.633,-0.55385 -0.657,-0.6182 -0.493,-0.4835 -0.244,-0.27844 -0.433,-0.36789 -0.312,-0.17993 -0.121,-0.0905 -0.31,-0.97705 -0.169,-0.89663 0,-0.67448 -10e-4,-0.93383 0,-0.93282 0,-0.93081 -0.001,-0.9298 0,-0.9288 0,-0.92578 -0.001,-0.92579 0,-0.92477 0,-0.44932 0.647,0 0.734,0 0.767,0 0.834,0 0.834,0 0.834,0 0.582,0 0.153,-0.007 0.184,-0.0282 0.013,-0.0915 -0.24,-0.45334 0.012,-0.16084 0.064,-0.30758 0.099,-0.26538 0.131,-0.3488 0.014,-0.20505 -0.105,-0.66846 0.01,-0.37192 0.03,-0.387 0.03,-0.36589 -0.036,-0.25532 0.044,-0.13872 0.079,-0.19902 0.041,-0.22517 0.049,-0.0965 -0.016,-0.0895 -0.044,-0.16685 -0.044,-0.37394 -0.061,-0.51969 -0.061,-0.37393 0.102,0.0211 0.212,0.0351 0.103,0.18296 0.06,0.20103 0.143,0.0111 0.372,0.11862 0.129,0.16585 0.085,0.35886 -0.051,0.18395 -0.12,0.14776 0.12,0.13068 0.249,0.0875 0.146,-0.0262 0.42,-0.24426 0.168,-0.0432 0.219,-0.0482 0.198,-0.0623 0.559,-0.11158 0.305,-0.0492 0.172,-0.0875 0.12,0 0.086,0.0703 -0.077,0.25331 -0.026,0.22717 0.107,0.4252 0.08,0.19802 0.18,0.14475 0.131,0.0754 0.145,0.15379 0.301,-0.0262 0.662,0.21713 0.201,0.10052 0.279,0.10052 0.198,0.0372 0.683,0.0764 0.252,0.0512 0.468,0.0683 0.374,0.0121 0.265,-0.0312 0.186,-0.0623 0.114,-0.0683 0.052,-0.0593 0.077,-0.21209 0.139,-0.46038 0.055,-0.13771 0.138,-0.0633 0.179,-0.0413 0.105,0.0734 0.117,0.51064 0.521,0.46137 0.178,0.38801 0.13,0.33171 0.113,0.0905 0.198,0.11358 0.316,0.0403 0.282,0.0121 0.594,0.23923 0.472,0.18999 0.338,0.1367 0.155,0.10354 0.108,0.16988 0.064,0.13168 0.104,0.34177 0.111,0.27039 0.181,0.0512 0.162,0.0211 0.16,0.18496 0.121,0.16184 0.24,0.39605 0.177,0.2734 0.058,0.26638 0.201,0.17792 0.274,0.0754 0.253,0.0101 0.146,-0.0794 0.359,-0.13872 0.28,-0.15782 0.204,-0.0552 0.121,0.0342 0.092,0.10957 0.049,0.2141 0.012,0.11962 0.199,0.11358 0.147,-0.0452 0.057,-0.13168 0.003,-0.0653 -0.001,-0.583 0,-0.50461 -0.001,-0.47446 0,-0.57798 -10e-4,-0.5036 0,-0.41415 -0.001,-0.43223 -0.128,0.0242 -0.161,0.0985 -0.371,0.0121 -0.145,0.0734 -0.045,0.11158 0.028,0.14474 0.008,0.19702 -0.055,0.0925 -0.162,0.0371 -0.236,-0.0764 -0.427,-0.0985 -0.356,-0.0613 -0.256,-0.26136 -0.346,-0.39404 -0.227,-0.19802 -0.546,-0.41112 -0.093,-0.0824 -0.166,-0.19199 -0.142,-0.32569 -0.07,-0.21611 -0.066,-0.16083 -0.073,-0.23923 0.132,-0.36791 0.185,-0.69961 0.134,-0.5036 0.074,-0.37293 0.265,-0.37996 0.019,-0.33976 -0.107,-0.43525 0.027,-0.24024 0.018,-0.61015 0.015,-0.51265 0.004,-0.24929 -0.073,-0.43324 -0.179,-0.47947 -0.394,-0.66745 0.002,-0.14273 0.234,-0.15782 0.371,-0.27542 0.182,-0.16385 0.218,-0.2322 0.097,-0.11862 0.214,-0.29753 0.135,-0.24225 0.047,-0.31262 -0.102,-0.29753 0.208,-0.0583 0.683,-0.10453 0.752,-0.1156 0.793,-0.12263 0.8,-0.12264 0.775,-0.11962 0.703,-0.10755 0.486,-0.0754 0.072,0.20405 0.152,0.33975 0.171,0.24929 0.215,0.21914 0.182,0.13269 0.121,0.0403 0.77,-0.0141 0.276,0.13269 0.241,0.16887 0.06,0.26136 0.158,0.16384 0.171,0.12867 0.074,0.0161 0.126,-0.0312 0.206,-0.003 0.191,0.0563 0.091,0.0573 0.009,0.21912 0.058,0.0975 0.26,0.0383 0.265,0.0171 0.256,0.14877 0.276,0.0262 0.32,0.0613 0.152,0.15982 0.339,0.16385 0.416,0.14676 0.3,0.16586 z" title="Zambia" id="ZM" class=" " style="fill: rgb(0, 0, 0); stroke-width: 1.2px;"></path>
  
<circle cx="0" cy="0" r="1.6578156033287101" class="mapsvg-path-point mapsvg-path-point-new" style="stroke-width: 1px; display: none;"></circle><circle cx="0" cy="0" r="1.6578156033287101" class="mapsvg-path-point mapsvg-path-point-new" style="stroke-width: 1px; display: none;"></circle><circle cx="0" cy="0" r="1.6578156033287101" class="mapsvg-path-point mapsvg-path-point-new" style="stroke-width: 1px; display: none;"></circle><circle cx="0" cy="0" r="1.6578156033287101" class="mapsvg-path-point mapsvg-path-point-new" style="stroke-width: 1px; display: none;"></circle><circle cx="0" cy="0" r="1.6578156033287101" class="mapsvg-path-point mapsvg-path-point-new" style="stroke-width: 1px; display: none;"></circle><circle cx="0" cy="0" r="1.6578156033287101" class="mapsvg-path-point mapsvg-path-point-new" style="stroke-width: 1px; display: none;"></circle><circle cx="0" cy="0" r="1.6578156033287101" class="mapsvg-path-point mapsvg-path-point-new" style="stroke-width: 1px; display: none;"></circle><circle cx="0" cy="0" r="1.6578156033287101" class="mapsvg-path-point mapsvg-path-point-new" style="stroke-width: 1px; display: none;"></circle><circle cx="0" cy="0" r="1.6578156033287101" class="mapsvg-path-point mapsvg-path-point-new" style="stroke-width: 1px; display: none;"></circle><circle cx="0" cy="0" r="1.6578156033287101" class="mapsvg-path-point mapsvg-path-point-new" style="stroke-width: 1px; display: none;"></circle><circle cx="0" cy="0" r="1.6578156033287101" class="mapsvg-path-point mapsvg-path-point-new" style="stroke-width: 1px; display: none;"></circle><circle cx="0" cy="0" r="1.6578156033287101" class="mapsvg-path-point mapsvg-path-point-new" style="stroke-width: 1px; display: none;"></circle><circle cx="0" cy="0" r="1.6578156033287101" class="mapsvg-path-point mapsvg-path-point-new" style="stroke-width: 1px; display: none;"></circle><circle cx="0" cy="0" r="1.6578156033287101" class="mapsvg-path-point mapsvg-path-point-new" style="stroke-width: 1px; display: none;"></circle><circle cx="0" cy="0" r="1.6578156033287101" class="mapsvg-path-point mapsvg-path-point-new" style="stroke-width: 1px; display: none;"></circle><circle cx="0" cy="0" r="1.6578156033287101" class="mapsvg-path-point mapsvg-path-point-new" style="stroke-width: 1px; display: none;"></circle><circle cx="0" cy="0" r="1.6578156033287101" class="mapsvg-path-point mapsvg-path-point-new" style="stroke-width: 1px; display: none;"></circle><circle cx="0" cy="0" r="1.6578156033287101" class="mapsvg-path-point mapsvg-path-point-new" style="stroke-width: 1px; display: none;"></circle><circle cx="0" cy="0" r="1.6578156033287101" class="mapsvg-path-point mapsvg-path-point-new" style="stroke-width: 1px; display: none;"></circle><circle cx="0" cy="0" r="1.6578156033287101" class="mapsvg-path-point mapsvg-path-point-new" style="stroke-width: 1px; display: none;"></circle><circle cx="0" cy="0" r="1.6578156033287101" class="mapsvg-path-point mapsvg-path-point-new" style="stroke-width: 1px; display: none;"></circle><circle cx="0" cy="0" r="3.3156312066574203" class="mapsvg-path-point mapsvg-path-point-new" style="stroke-width: 1px; display: none;"></circle><circle cx="0" cy="0" r="3.3156312066574203" class="mapsvg-path-point mapsvg-path-point-new" style="stroke-width: 1px; display: none;"></circle><circle cx="0" cy="0" r="3.3156312066574203" class="mapsvg-path-point mapsvg-path-point-new" style="stroke-width: 1px; display: none;"></circle><circle cx="0" cy="0" r="3.3156312066574203" class="mapsvg-path-point mapsvg-path-point-new" style="stroke-width: 1px; display: none;"></circle><circle cx="0" cy="0" r="3.3156312066574203" class="mapsvg-path-point mapsvg-path-point-new" style="stroke-width: 1px; display: none;"></circle><circle cx="0" cy="0" r="3.3156312066574203" class="mapsvg-path-point mapsvg-path-point-new" style="stroke-width: 1px; display: none;"></circle><circle cx="0" cy="0" r="3.3156312066574203" class="mapsvg-path-point mapsvg-path-point-new" style="stroke-width: 1px; display: none;"></circle><circle cx="0" cy="0" r="3.3156312066574203" class="mapsvg-path-point mapsvg-path-point-new" style="stroke-width: 1px; display: none;"></circle><circle cx="0" cy="0" r="3.3156312066574203" class="mapsvg-path-point mapsvg-path-point-new" style="stroke-width: 1px; display: none;"></circle><circle cx="0" cy="0" r="3.3156312066574203" class="mapsvg-path-point mapsvg-path-point-new" style="stroke-width: 1px; display: none;"></circle><circle cx="0" cy="0" r="3.3156312066574203" class="mapsvg-path-point mapsvg-path-point-new" style="stroke-width: 1px; display: none;"></circle><circle cx="0" cy="0" r="3.3156312066574203" class="mapsvg-path-point mapsvg-path-point-new" style="stroke-width: 1px; display: none;"></circle><circle cx="0" cy="0" r="3.3156312066574203" class="mapsvg-path-point mapsvg-path-point-new" style="stroke-width: 1px; display: none;"></circle><circle cx="0" cy="0" r="3.3156312066574203" class="mapsvg-path-point mapsvg-path-point-new" style="stroke-width: 1px; display: none;"></circle><circle cx="0" cy="0" r="3.3156312066574203" class="mapsvg-path-point mapsvg-path-point-new" style="stroke-width: 1px; display: none;"></circle><circle cx="0" cy="0" r="3.3156312066574203" class="mapsvg-path-point mapsvg-path-point-new" style="stroke-width: 1px; display: none;"></circle><circle cx="0" cy="0" r="3.3156312066574203" class="mapsvg-path-point mapsvg-path-point-new" style="stroke-width: 1px; display: none;"></circle><circle cx="0" cy="0" r="3.3156312066574203" class="mapsvg-path-point mapsvg-path-point-new" style="stroke-width: 1px; display: none;"></circle><circle cx="0" cy="0" r="3.3156312066574203" class="mapsvg-path-point mapsvg-path-point-new" style="stroke-width: 1px; display: none;"></circle><circle cx="0" cy="0" r="3.3156312066574203" class="mapsvg-path-point mapsvg-path-point-new" style="stroke-width: 1px; display: none;"></circle><circle cx="0" cy="0" r="3.3156312066574203" class="mapsvg-path-point mapsvg-path-point-new" style="stroke-width: 1px; display: none;"></circle><circle cx="0" cy="0" r="3.3156312066574203" class="mapsvg-path-point mapsvg-path-point-new" style="stroke-width: 1px; display: none;"></circle><circle cx="0" cy="0" r="3.3156312066574203" class="mapsvg-path-point mapsvg-path-point-new" style="stroke-width: 1px; display: none;"></circle><circle cx="0" cy="0" r="3.3156312066574203" class="mapsvg-path-point mapsvg-path-point-new" style="stroke-width: 1px; display: none;"></circle><circle cx="0" cy="0" r="3.3156312066574203" class="mapsvg-path-point mapsvg-path-point-new" style="stroke-width: 1px; display: none;"></circle><circle cx="0" cy="0" r="3.3156312066574203" class="mapsvg-path-point mapsvg-path-point-new" style="stroke-width: 1px; display: none;"></circle><circle cx="0" cy="0" r="3.3156312066574203" class="mapsvg-path-point mapsvg-path-point-new" style="stroke-width: 1px; display: none;"></circle></svg>